{"glyphs":{"0":{"ha":825,"x_min":69,"x_max":756,"o":"m 249 161 q 270 113 249 161 q 413 65 292 65 q 576 161 533 65 q 619 449 619 257 q 576 737 619 642 q 413 832 533 832 q 249 737 292 832 q 206 449 206 642 q 249 161 206 257 m 669 113 q 626 52 669 113 q 413 -8 583 -8 q 156 113 242 -8 q 69 450 69 235 q 156 785 69 665 q 413 906 242 906 q 669 785 583 906 q 756 450 756 665 q 669 113 756 235 z "},"1":{"ha":596,"x_min":58,"x_max":578,"o":"m 263 757 l 65 757 l 65 821 q 343 903 215 836 l 393 883 l 393 94 q 578 51 446 67 l 572 0 l 58 0 l 63 51 q 263 94 193 65 l 263 757 z "},"2":{"ha":740,"x_min":71,"x_max":682,"o":"m 71 0 l 71 85 q 413 424 319 299 q 507 665 507 550 q 356 836 507 836 q 249 797 289 836 q 208 705 208 757 q 239 613 208 653 q 167 581 210 581 q 98 607 124 581 q 72 690 72 633 q 156 840 72 775 q 365 906 240 906 q 568 838 490 906 q 646 653 646 769 q 550 411 646 538 q 228 110 454 285 l 682 110 l 682 0 l 71 0 z "},"3":{"ha":724,"x_min":53,"x_max":647,"o":"m 265 439 l 265 504 q 438 554 378 507 q 499 681 499 601 q 463 799 499 761 q 360 838 426 838 q 256 801 293 838 q 219 711 219 765 q 235 654 219 681 q 164 628 200 628 q 108 654 128 628 q 89 724 89 681 q 167 853 89 800 q 365 907 244 907 q 560 847 485 907 q 636 690 636 786 q 444 474 636 535 q 647 244 647 425 q 565 62 647 133 q 347 -10 483 -10 q 132 44 211 -10 q 53 193 53 99 q 78 253 53 232 q 140 275 103 275 q 210 250 178 275 q 197 186 197 217 q 240 94 197 129 q 357 60 282 60 q 474 110 432 60 q 517 247 517 160 q 453 387 517 335 q 265 439 389 439 z "},"4":{"ha":747,"x_min":28,"x_max":719,"o":"m 458 308 l 458 550 q 522 568 494 551 q 557 613 549 585 l 590 613 l 590 310 l 719 282 l 719 225 l 585 225 l 585 1 l 458 1 l 458 225 l 39 225 l 28 275 l 335 892 q 460 857 421 892 l 146 308 l 458 308 z "},"5":{"ha":739,"x_min":71,"x_max":675,"o":"m 183 897 q 397 893 304 893 q 590 896 490 893 l 619 874 q 608 788 617 819 l 233 788 l 208 531 q 383 569 297 569 q 597 496 518 569 q 675 291 675 422 q 590 74 675 160 q 371 -12 504 -12 q 154 42 238 -12 q 71 181 71 96 q 94 248 71 224 q 157 272 117 272 q 228 247 197 272 q 215 188 215 218 q 258 94 215 131 q 367 57 300 57 q 544 288 544 57 q 496 442 544 388 q 355 496 447 496 q 157 436 263 496 l 117 478 l 156 875 l 183 897 z "},"6":{"ha":753,"x_min":69,"x_max":690,"o":"m 407 544 q 612 472 533 544 q 690 276 690 400 q 606 72 690 153 q 376 -8 522 -8 q 149 83 229 -8 q 69 340 69 174 q 203 707 69 563 q 567 917 338 851 l 590 864 q 346 714 436 801 q 224 492 256 626 q 407 544 308 544 m 208 340 q 386 61 208 61 q 508 119 465 61 q 551 274 551 176 q 510 424 551 372 q 393 475 469 475 q 210 390 286 475 q 208 340 208 374 z "},"7":{"ha":668,"x_min":35,"x_max":649,"o":"m 322 160 q 374 47 322 85 q 280 -11 324 -11 q 207 28 236 -11 q 178 126 178 67 q 206 264 178 203 q 316 458 253 367 q 401 582 379 550 q 469 678 424 614 q 544 788 514 743 l 147 788 q 115 628 122 715 q 86 624 100 624 q 57 628 72 624 q 44 773 53 690 q 35 872 35 856 l 56 896 q 336 893 188 893 l 622 896 l 649 831 q 548 672 617 786 q 436 477 479 558 q 358 304 393 396 q 322 160 322 213 z "},"8":{"ha":786,"x_min":76,"x_max":710,"o":"m 113 679 q 190 844 113 782 q 394 906 268 906 q 594 848 521 906 q 667 690 667 790 q 626 581 667 633 q 515 490 585 529 q 658 393 607 450 q 710 231 710 336 q 624 59 710 126 q 393 -8 539 -8 q 162 54 247 -8 q 76 235 76 117 q 253 478 76 376 q 113 679 113 547 m 211 242 q 260 110 211 158 q 395 61 310 61 q 528 110 481 61 q 575 242 575 158 q 544 333 575 300 q 514 364 528 351 q 469 391 500 376 q 423 412 439 406 q 369 432 407 418 q 317 451 331 446 q 211 242 211 382 m 539 692 q 498 799 539 760 q 389 838 457 838 q 281 798 321 838 q 240 689 240 758 q 328 571 240 615 q 443 521 368 550 q 539 692 539 583 z "},"9":{"ha":746,"x_min":57,"x_max":678,"o":"m 340 357 q 135 429 214 357 q 57 625 57 501 q 141 829 57 749 q 372 910 225 910 q 598 819 518 910 q 678 561 678 728 q 544 194 678 339 q 181 -15 410 50 l 157 38 q 401 187 310 100 q 522 408 492 274 q 340 357 438 357 m 538 511 l 539 561 q 361 840 539 840 q 239 783 282 840 q 196 627 196 725 q 237 478 196 529 q 354 426 278 426 q 538 511 460 426 z "}," ":{"ha":351,"x_min":0,"x_max":0,"o":""},"!":{"ha":301,"x_min":68,"x_max":253,"o":"m 104 272 l 108 576 q 81 936 108 814 q 169 961 113 961 q 253 849 253 961 q 221 589 253 797 q 182 286 189 381 l 104 272 m 194 13 q 184 1 194 13 q 140 -10 174 -10 q 88 13 107 -10 q 68 67 68 35 q 88 120 68 99 q 141 142 108 142 q 194 120 174 142 q 214 67 214 99 q 194 13 214 35 z "},"\"":{"ha":408,"x_min":49,"x_max":360,"o":"m 89 713 q 49 943 49 907 q 110 1011 49 1011 q 153 994 136 1011 q 171 956 171 978 q 132 713 171 913 l 89 713 m 278 713 q 238 943 238 907 q 299 1011 238 1011 q 342 994 325 1011 q 360 956 360 978 q 321 713 360 913 l 278 713 z "},"#":{"ha":844,"x_min":38,"x_max":801,"o":"m 163 7 l 208 181 l 38 181 l 53 260 l 231 260 l 281 449 l 115 449 l 131 528 l 303 528 l 353 714 l 429 696 l 383 528 l 568 528 l 618 714 l 694 696 l 649 528 l 801 528 l 786 449 l 628 449 l 576 260 l 724 260 l 708 181 l 554 181 l 503 -12 l 428 7 l 474 181 l 289 181 l 238 -12 l 163 7 m 311 260 l 496 260 l 546 449 l 363 449 l 311 260 z "},"$":{"ha":738,"x_min":83,"x_max":654,"o":"m 358 32 q 156 82 229 32 q 83 221 83 132 q 108 276 83 254 q 169 297 132 297 q 231 271 207 297 q 221 218 221 242 q 259 137 221 168 q 358 103 297 106 l 358 408 q 307 428 319 424 q 260 449 294 433 q 213 474 226 464 q 174 505 199 485 q 140 544 150 525 q 113 650 113 600 q 181 797 113 739 q 358 860 250 854 l 358 961 l 367 971 q 418 964 390 971 l 418 858 q 576 806 513 850 q 639 701 639 761 q 621 635 639 660 q 568 610 603 610 q 500 635 533 610 q 515 692 515 658 q 489 753 515 726 q 418 788 463 779 l 418 513 q 606 407 558 458 q 654 263 654 353 q 591 111 654 174 q 418 35 528 49 l 418 -65 l 410 -75 q 358 -68 386 -75 l 358 32 m 236 657 q 267 588 236 615 q 358 536 299 561 l 358 789 q 236 657 236 778 m 531 240 q 418 383 531 329 l 418 108 q 531 240 531 132 z "},"%":{"ha":1058,"x_min":57,"x_max":1001,"o":"m 229 31 l 742 928 l 822 889 l 306 -15 l 229 31 m 172 660 q 172 613 172 660 q 191 519 172 567 q 260 472 210 472 q 330 519 311 472 q 349 660 349 567 q 330 799 349 753 q 260 846 311 846 q 191 799 210 846 q 172 660 172 753 m 464 660 q 464 602 464 660 q 413 479 464 544 q 260 414 361 414 q 108 479 160 414 q 57 660 57 544 q 108 839 57 775 q 260 903 158 903 q 413 839 361 903 q 464 660 464 775 m 710 236 q 710 190 710 236 q 728 96 710 143 q 798 49 747 49 q 867 96 849 49 q 886 236 886 143 q 867 376 886 329 q 798 422 849 422 q 728 376 747 422 q 710 236 710 329 m 783 -10 q 594 236 594 -10 q 645 415 594 351 q 797 479 696 479 q 950 415 899 479 q 1001 237 1001 351 q 944 56 1001 122 q 783 -10 886 -10 z "},"&":{"ha":1058,"x_min":83,"x_max":1036,"o":"m 222 289 q 500 68 222 68 q 724 142 638 68 q 810 360 810 215 q 768 544 810 458 q 671 526 700 542 q 642 478 642 511 q 671 419 642 444 q 607 392 643 392 q 550 416 571 392 q 529 479 529 440 q 592 575 529 542 q 775 608 656 608 q 924 676 924 608 q 894 736 924 711 q 958 764 922 764 q 1015 742 994 764 q 1036 683 1036 719 q 822 546 1036 550 q 872 340 872 449 q 766 84 872 175 q 478 -7 660 -7 q 190 72 297 -7 q 83 282 83 150 q 281 550 83 485 q 161 736 161 604 q 240 885 161 825 q 434 946 319 946 q 625 896 549 946 q 701 769 701 846 q 681 698 701 725 q 624 671 661 671 q 554 697 586 671 q 569 766 569 725 q 532 839 569 807 q 433 871 494 871 q 331 834 371 871 q 292 738 292 797 q 331 634 292 678 q 457 589 369 590 l 457 517 q 285 444 349 504 q 222 289 222 383 z "},"'":{"ha":219,"x_min":49,"x_max":171,"o":"m 89 713 q 49 943 49 907 q 110 1011 49 1011 q 153 994 136 1011 q 171 956 171 978 q 132 713 171 913 l 89 713 z "},"(":{"ha":404,"x_min":56,"x_max":369,"o":"m 85 217 q 70 269 85 217 q 56 436 56 322 q 84 655 56 550 q 153 828 113 760 q 306 1022 236 965 l 335 1044 l 369 1008 q 158 437 158 788 q 369 -135 158 86 l 335 -171 q 242 -80 296 -142 q 152 47 189 -18 q 85 217 115 111 z "},")":{"ha":404,"x_min":35,"x_max":349,"o":"m 35 -135 q 246 437 246 86 q 35 1008 246 788 l 69 1044 q 162 953 108 1015 q 252 827 215 892 q 319 656 289 763 q 349 451 349 550 q 333 274 349 353 q 293 137 318 196 q 239 26 268 78 q 181 -61 210 -26 q 69 -171 117 -133 l 35 -135 z "},"*":{"ha":518,"x_min":42,"x_max":476,"o":"m 236 797 q 152 774 194 793 q 91 756 110 756 q 57 771 72 756 q 42 810 42 786 q 57 849 42 833 q 90 864 72 864 q 151 845 108 864 q 238 822 194 826 q 184 876 215 853 q 138 915 153 899 q 122 953 122 931 q 138 990 122 975 q 183 1006 154 1006 q 220 987 211 1006 q 235 920 229 968 q 258 835 242 872 q 282 922 275 874 q 298 988 289 969 q 335 1006 307 1006 q 378 989 363 1006 q 394 950 394 972 q 379 913 394 928 q 333 875 364 899 q 281 822 303 851 q 364 845 319 826 q 427 864 408 864 q 461 849 446 864 q 476 810 476 833 q 460 771 476 786 q 426 756 444 756 q 364 774 408 756 q 281 797 319 793 q 335 742 304 764 q 380 706 365 719 q 394 669 394 692 q 378 629 394 646 q 335 613 363 613 q 293 642 308 613 q 281 699 286 653 q 258 785 276 744 q 235 698 239 744 q 225 642 231 651 q 181 613 207 613 q 138 630 154 613 q 122 666 122 647 q 133 699 122 685 q 157 721 143 713 q 236 797 201 747 z "},"+":{"ha":757,"x_min":86,"x_max":671,"o":"m 329 121 l 329 372 l 86 372 l 86 451 l 329 451 l 329 703 l 419 703 l 419 451 l 671 451 l 671 372 l 419 372 l 419 121 l 329 121 z "},",":{"ha":289,"x_min":76,"x_max":247,"o":"m 164 -25 q 121 25 164 25 q 94 19 117 25 q 76 71 76 38 q 100 124 76 104 q 162 144 124 144 q 224 115 200 144 q 247 39 247 86 q 104 -190 247 -103 l 79 -156 q 164 -25 164 -99 z "},"-":{"ha":499,"x_min":42,"x_max":457,"o":"m 42 335 l 42 415 l 457 415 l 457 335 l 42 335 z "},".":{"ha":275,"x_min":68,"x_max":214,"o":"m 194 15 q 184 4 194 15 q 140 -7 174 -7 q 88 15 107 -7 q 68 69 68 38 q 88 123 68 101 q 141 144 108 144 q 194 123 174 144 q 214 69 214 101 q 194 15 214 38 z "},"/":{"ha":538,"x_min":-14,"x_max":538,"o":"m -14 -160 l 454 1054 l 538 1024 l 69 -190 l -14 -160 z "},":":{"ha":293,"x_min":85,"x_max":231,"o":"m 210 32 q 200 21 210 32 q 157 10 190 10 q 104 32 124 10 q 85 86 85 54 q 105 140 85 118 q 158 161 125 161 q 210 140 190 161 q 231 86 231 118 q 210 32 231 54 m 210 522 q 200 511 210 522 q 157 500 190 500 q 104 522 124 500 q 85 576 85 544 q 105 630 85 608 q 158 651 125 651 q 210 630 190 651 q 231 576 231 608 q 210 522 231 544 z "},";":{"ha":306,"x_min":86,"x_max":257,"o":"m 174 -25 q 131 25 174 25 q 104 19 126 25 q 86 71 86 38 q 110 124 86 104 q 172 144 133 144 q 233 115 210 144 q 257 39 257 86 q 114 -190 257 -103 l 89 -156 q 174 -25 174 -99 m 222 522 q 211 511 222 522 q 168 500 201 500 q 115 522 135 500 q 96 576 96 544 q 116 630 96 608 q 169 651 136 651 q 222 630 201 651 q 242 576 242 608 q 222 522 242 544 z "},"<":{"ha":792,"x_min":90,"x_max":701,"o":"m 90 363 l 90 439 l 664 711 l 701 635 l 208 400 l 701 167 l 664 90 l 90 363 z "},"=":{"ha":757,"x_min":93,"x_max":664,"o":"m 93 250 l 93 329 l 664 329 l 664 250 l 93 250 m 93 464 l 93 543 l 664 543 l 664 464 l 93 464 z "},">":{"ha":792,"x_min":90,"x_max":701,"o":"m 128 90 l 90 167 l 583 400 l 90 635 l 128 711 l 701 438 l 701 363 l 128 90 z "},"?":{"ha":594,"x_min":71,"x_max":546,"o":"m 314 297 q 249 272 283 272 q 194 299 214 272 q 175 374 175 326 q 201 466 175 421 q 264 543 226 511 q 339 607 301 575 q 428 779 428 683 q 392 858 428 828 q 308 888 357 888 q 230 869 260 888 q 200 818 200 850 q 217 757 200 786 q 144 713 188 713 q 71 793 71 713 q 140 913 71 874 q 310 951 208 951 q 478 906 411 951 q 546 761 546 860 q 461 569 546 653 q 390 503 425 535 q 306 363 306 425 q 314 297 306 333 m 305 13 q 295 1 305 13 q 251 -10 285 -10 q 199 13 218 -10 q 179 67 179 35 q 199 120 179 99 q 252 142 219 142 q 305 120 285 142 q 325 67 325 99 q 305 13 325 35 z "},"@":{"ha":1333,"x_min":83,"x_max":1261,"o":"m 668 -258 q 243 -90 403 -258 q 83 331 83 79 q 247 751 83 582 q 681 919 411 919 q 1106 774 950 919 q 1261 400 1261 628 q 1190 109 1261 222 q 985 -4 1118 -4 q 785 75 824 -4 q 593 1 700 1 q 467 44 511 1 q 422 163 422 86 q 668 367 422 346 l 772 375 l 772 476 q 746 578 772 546 q 667 611 719 611 q 557 544 557 611 q 600 497 557 514 q 517 425 600 425 q 456 449 478 425 q 433 508 433 472 q 497 624 433 582 q 667 667 560 667 q 835 616 774 667 q 897 476 897 565 l 897 163 q 993 67 897 67 q 1092 164 1056 67 q 1128 400 1128 261 q 1016 727 1128 599 q 688 856 904 856 q 344 705 472 856 q 217 331 217 554 q 340 -44 217 107 q 668 -194 464 -194 q 896 -132 797 -194 l 938 -186 q 668 -258 826 -258 m 546 175 q 629 67 546 67 q 772 143 696 67 l 772 311 l 674 303 q 580 262 614 297 q 546 175 546 226 z "},"A":{"ha":985,"x_min":0,"x_max":985,"o":"m 0 0 l 8 56 q 122 94 82 65 l 431 940 l 544 940 l 878 93 q 985 56 913 67 l 978 0 l 582 0 l 590 56 q 722 93 679 65 l 638 315 l 300 315 l 221 92 q 360 56 267 67 l 353 0 l 0 0 m 328 393 l 608 393 l 463 774 l 328 393 z "},"B":{"ha":903,"x_min":60,"x_max":835,"o":"m 457 939 q 794 704 794 939 q 631 500 794 549 q 781 410 726 471 q 835 265 835 350 q 745 72 835 143 q 496 0 656 0 l 60 0 l 68 56 q 203 94 154 65 l 203 844 q 60 883 154 874 l 67 939 l 457 939 m 335 74 l 496 74 q 647 122 596 74 q 699 264 699 171 q 638 408 699 357 q 458 458 578 458 l 335 458 l 335 74 m 335 532 l 460 532 q 615 574 565 532 q 664 701 664 615 q 614 828 664 788 q 456 869 564 869 q 335 865 414 869 l 335 532 z "},"C":{"ha":840,"x_min":67,"x_max":810,"o":"m 492 -10 q 169 106 271 -10 q 67 467 67 221 q 492 947 67 947 q 744 865 658 947 q 792 761 792 819 q 766 669 792 703 q 708 636 740 636 q 651 652 675 636 q 619 694 626 668 q 647 777 647 735 q 605 845 647 819 q 493 871 563 871 q 279 776 344 871 q 214 467 214 681 q 278 160 214 253 q 492 67 342 67 q 594 86 540 67 q 740 240 699 125 l 810 215 q 750 110 788 156 q 676 43 713 65 q 597 8 640 21 q 492 -10 536 -10 z "},"D":{"ha":986,"x_min":60,"x_max":921,"o":"m 406 939 q 792 826 664 939 q 921 467 921 713 q 792 111 921 222 q 397 0 663 0 l 60 0 l 68 56 q 203 94 154 65 l 203 844 q 60 883 153 872 l 67 939 l 406 939 m 426 865 l 335 864 l 335 74 l 422 74 q 685 163 599 74 q 772 468 772 251 q 687 775 772 685 q 426 865 601 865 z "},"E":{"ha":879,"x_min":60,"x_max":822,"o":"m 788 714 q 751 707 771 707 q 724 708 731 707 q 654 860 704 799 l 335 860 l 335 514 l 550 529 q 633 628 610 533 l 681 628 l 681 336 l 633 336 q 549 444 613 440 l 335 460 l 335 85 l 690 85 q 761 253 740 151 q 789 256 781 256 q 822 253 797 256 l 808 0 l 60 0 l 68 56 q 203 94 167 67 l 203 844 q 60 883 153 872 l 67 939 l 775 939 l 788 714 z "},"F":{"ha":833,"x_min":60,"x_max":788,"o":"m 788 714 q 749 707 767 707 q 724 708 731 707 q 654 860 704 799 l 335 860 l 335 514 l 550 529 q 633 628 610 533 l 681 628 l 681 336 l 633 336 q 549 444 613 440 l 335 460 l 335 94 q 478 56 378 67 l 471 0 l 60 0 l 68 56 q 203 94 167 67 l 203 844 q 60 883 153 872 l 67 939 l 775 939 l 788 714 z "},"G":{"ha":914,"x_min":67,"x_max":800,"o":"m 478 -10 q 167 106 267 -10 q 67 467 67 222 q 492 946 67 946 q 750 861 660 946 q 800 743 800 814 q 774 667 800 699 q 715 636 747 636 q 659 652 683 636 q 628 694 635 668 q 656 776 656 735 q 608 843 656 817 q 493 869 561 869 q 279 774 344 869 q 214 467 214 679 q 276 160 214 254 q 478 67 338 67 q 671 99 578 67 l 671 371 l 525 382 l 525 438 l 800 458 l 800 60 q 478 -10 633 -10 z "},"H":{"ha":1106,"x_min":60,"x_max":1046,"o":"m 335 521 l 771 521 l 771 844 q 628 883 721 872 l 635 939 l 1046 939 l 1038 883 q 903 844 951 874 l 903 94 q 1046 56 953 67 l 1039 0 l 628 0 l 636 56 q 771 94 722 65 l 771 443 l 335 443 l 335 94 q 478 56 385 67 l 471 0 l 60 0 l 68 56 q 203 94 154 65 l 203 844 q 60 883 153 872 l 67 939 l 478 939 l 469 883 q 335 844 383 874 l 335 521 z "},"I":{"ha":557,"x_min":69,"x_max":488,"o":"m 69 0 l 78 56 q 213 94 164 65 l 213 844 q 69 883 163 872 l 76 939 l 488 939 l 479 883 q 344 844 393 874 l 344 94 q 488 56 394 67 l 481 0 l 69 0 z "},"J":{"ha":500,"x_min":29,"x_max":478,"o":"m 203 46 l 203 844 q 60 883 153 872 l 67 939 l 478 939 l 469 883 q 335 844 383 874 l 335 68 q 260 -137 335 -62 q 46 -249 186 -211 l 29 -203 q 156 -111 108 -168 q 203 46 203 -54 z "},"K":{"ha":940,"x_min":60,"x_max":940,"o":"m 60 0 l 68 56 q 203 94 154 65 l 203 844 q 60 883 153 872 l 67 939 l 478 939 l 469 883 q 335 844 383 874 l 335 94 q 478 56 385 67 l 471 0 l 60 0 m 639 839 q 550 881 639 875 l 560 939 l 907 939 l 901 883 q 756 826 794 876 l 486 526 l 796 121 q 940 57 844 68 l 932 0 l 699 0 q 674 71 699 36 l 347 499 l 626 811 q 639 839 639 824 z "},"L":{"ha":786,"x_min":60,"x_max":768,"o":"m 335 85 l 654 85 q 694 171 681 118 q 708 228 707 224 l 768 219 l 731 0 l 60 0 l 68 56 q 203 94 154 65 l 203 844 q 60 883 153 872 l 67 939 l 478 939 l 469 883 q 335 844 383 874 l 335 85 z "},"M":{"ha":1315,"x_min":54,"x_max":1261,"o":"m 986 94 l 986 786 l 692 0 l 603 0 l 293 799 l 293 94 q 436 56 343 67 l 429 0 l 54 0 l 63 56 q 197 94 149 65 l 197 844 q 54 883 147 872 l 61 939 l 369 939 l 668 185 l 956 939 l 1261 939 l 1253 883 q 1118 844 1167 874 l 1118 94 q 1261 56 1168 67 l 1254 0 l 849 0 l 857 56 q 992 94 943 65 l 986 94 z "},"N":{"ha":1054,"x_min":42,"x_max":1033,"o":"m 890 0 l 800 0 l 281 722 l 281 94 q 424 56 331 67 l 417 0 l 42 0 l 50 56 q 185 94 136 65 l 185 844 q 42 883 135 872 l 49 939 l 296 939 l 794 246 l 794 844 q 651 883 744 872 l 658 939 l 1033 939 l 1025 883 q 890 844 939 874 l 890 0 z "},"O":{"ha":956,"x_min":67,"x_max":889,"o":"m 273 161 q 302 114 273 161 q 478 67 332 67 q 683 161 624 67 q 743 469 743 256 q 683 777 743 683 q 478 871 624 871 q 273 777 332 871 q 214 469 214 683 q 273 161 214 256 m 889 469 q 889 230 889 469 q 478 -8 889 -8 q 67 469 67 -8 q 478 946 67 946 q 889 469 889 946 z "},"P":{"ha":847,"x_min":61,"x_max":797,"o":"m 469 939 q 797 676 797 939 q 697 468 797 528 q 404 408 596 408 l 336 408 l 336 94 q 479 56 386 67 l 472 0 l 61 0 l 69 56 q 204 94 156 65 l 204 844 q 61 883 154 872 l 68 939 l 469 939 m 336 476 l 404 476 q 663 679 663 476 q 613 827 663 778 q 469 876 563 876 q 336 864 419 876 l 336 476 z "},"Q":{"ha":956,"x_min":67,"x_max":889,"o":"m 67 469 q 478 946 67 946 q 889 469 889 946 q 565 -1 889 44 q 652 -123 592 -69 q 790 -203 713 -176 q 793 -222 793 -208 q 776 -249 793 -235 q 446 -7 544 -207 q 67 469 67 10 m 273 161 q 302 114 273 161 q 478 67 332 67 q 683 161 624 67 q 743 469 743 256 q 683 777 743 683 q 478 871 624 871 q 273 777 332 871 q 214 469 214 683 q 273 161 214 256 z "},"R":{"ha":949,"x_min":67,"x_max":940,"o":"m 475 939 q 817 690 817 939 q 614 456 817 504 q 701 340 658 428 l 817 94 q 940 57 856 68 l 932 0 l 707 0 l 579 313 q 515 417 543 399 q 393 436 486 436 l 342 436 l 342 94 q 485 56 379 71 l 478 0 l 67 0 l 75 56 q 210 94 161 65 l 210 844 q 67 883 161 874 l 74 939 l 475 939 m 342 504 l 410 504 q 682 693 682 504 q 475 876 682 876 q 342 864 419 876 l 342 504 z "},"S":{"ha":788,"x_min":99,"x_max":713,"o":"m 226 97 q 392 65 308 65 q 526 108 476 65 q 576 228 576 151 q 483 378 576 325 q 394 419 443 400 q 295 461 344 439 q 206 513 246 483 q 113 697 113 578 q 193 883 113 815 q 402 950 274 950 q 613 896 531 950 q 694 763 694 842 q 619 668 694 668 q 533 711 563 668 q 565 782 565 740 q 526 849 565 824 q 410 874 486 874 q 287 838 333 874 q 240 744 240 801 q 267 651 240 686 q 334 594 293 617 q 426 552 375 572 q 527 508 476 532 q 619 454 578 485 q 686 372 660 424 q 713 253 713 321 q 620 58 713 126 q 374 -11 528 -11 q 216 15 297 -11 q 99 67 135 42 l 99 308 l 174 317 q 226 97 190 181 z "},"T":{"ha":817,"x_min":31,"x_max":786,"o":"m 97 690 q 64 688 75 688 q 31 690 53 688 l 31 943 q 408 939 225 939 l 786 943 l 786 690 q 753 688 764 688 q 719 690 742 688 q 658 861 714 779 q 475 871 581 869 l 475 94 q 618 56 525 67 l 611 0 l 200 0 l 208 56 q 343 94 294 65 l 343 871 q 158 863 222 869 q 115 776 131 825 q 97 690 99 726 z "},"U":{"ha":1072,"x_min":47,"x_max":1047,"o":"m 190 310 l 190 844 q 47 883 142 874 l 54 939 l 468 939 l 460 883 q 325 844 374 872 l 325 310 q 381 124 325 181 q 558 67 438 67 q 743 132 678 67 q 808 318 808 197 l 808 844 q 665 883 760 874 l 672 939 l 1047 939 l 1039 883 q 904 844 953 872 l 904 318 q 815 74 904 160 q 545 -11 725 -11 q 278 65 365 -11 q 190 310 190 142 z "},"V":{"ha":971,"x_min":0,"x_max":971,"o":"m 432 0 l 113 846 q 0 883 72 872 l 7 939 l 403 939 l 394 883 q 260 844 308 874 l 500 182 l 740 846 q 600 883 690 872 l 607 939 l 971 939 l 963 883 q 839 844 882 872 l 521 0 l 432 0 z "},"W":{"ha":1426,"x_min":3,"x_max":1429,"o":"m 378 0 l 143 846 q 3 883 93 872 l 10 939 l 429 939 l 421 883 q 288 844 336 874 l 457 181 l 693 929 l 772 929 l 1015 193 l 1188 844 q 1044 883 1138 872 l 1051 939 l 1429 939 l 1421 883 q 1283 844 1331 874 l 1049 0 l 943 0 l 713 704 l 488 0 l 378 0 z "},"X":{"ha":978,"x_min":-3,"x_max":982,"o":"m -3 0 l 6 56 q 103 76 67 60 q 168 131 140 93 l 422 468 l 158 833 q 113 867 140 857 q 25 883 85 878 l 32 939 l 450 939 l 442 883 q 324 843 356 875 l 515 576 l 717 844 q 599 883 668 875 l 606 939 l 943 939 l 935 883 q 806 828 840 875 l 565 508 l 840 128 q 982 56 883 68 l 975 0 l 553 0 l 561 56 q 690 97 658 56 l 472 399 l 242 93 q 382 56 267 56 l 375 0 l -3 0 z "},"Y":{"ha":897,"x_min":-3,"x_max":900,"o":"m 238 0 l 246 56 q 388 94 336 65 l 388 367 l 124 833 q -3 883 93 874 l 4 939 l 408 939 l 400 883 q 269 850 311 872 l 472 482 l 678 849 q 536 883 631 872 l 543 939 l 900 939 l 892 883 q 772 839 803 881 l 519 376 l 519 94 q 669 56 571 67 l 663 0 l 238 0 z "},"Z":{"ha":839,"x_min":58,"x_max":760,"o":"m 585 861 l 460 863 q 219 857 293 863 q 149 694 167 811 q 118 692 129 692 q 90 694 107 692 l 72 911 l 111 944 q 451 939 311 939 q 747 944 592 939 l 760 886 l 221 78 q 394 76 261 76 q 597 78 526 76 q 693 267 668 164 q 726 269 713 269 q 758 267 739 269 l 746 -4 q 356 0 643 0 l 64 -6 l 58 68 l 585 861 z "},"[":{"ha":431,"x_min":139,"x_max":396,"o":"m 139 -168 l 139 1040 l 396 1040 l 396 993 l 235 979 l 235 -106 l 396 -119 l 396 -168 l 139 -168 z "},"\\":{"ha":542,"x_min":0,"x_max":542,"o":"m 458 -168 l 0 1024 l 83 1054 l 542 -137 l 458 -168 z "},"]":{"ha":431,"x_min":35,"x_max":292,"o":"m 35 -168 l 35 -119 l 196 -106 l 196 979 l 35 993 l 35 1040 l 292 1040 l 292 -168 l 35 -168 z "},"^":{"ha":732,"x_min":56,"x_max":676,"o":"m 56 417 l 328 893 l 404 893 l 676 417 l 600 379 l 365 789 l 132 379 l 56 417 z "},"_":{"ha":749,"x_min":0,"x_max":749,"o":"m 0 -150 l 0 -71 l 749 -71 l 749 -150 l 0 -150 z "},"`":{"ha":299,"x_min":47,"x_max":274,"o":"m 85 910 q 47 964 47 940 q 63 1003 47 988 q 106 1019 79 1019 q 149 994 133 1019 l 274 821 l 240 785 l 85 910 z "},"a":{"ha":706,"x_min":72,"x_max":692,"o":"m 260 -11 q 122 34 171 -11 q 72 169 72 79 q 141 314 72 258 q 342 379 210 369 l 460 388 l 460 510 q 430 619 460 585 q 335 653 400 653 q 217 585 217 653 q 263 529 217 547 q 176 458 263 458 q 114 482 138 458 q 90 544 90 506 q 156 667 90 622 q 338 713 222 713 q 521 659 454 713 q 588 510 588 606 l 588 92 q 692 51 622 65 l 686 0 l 479 0 l 464 67 q 260 -11 382 -11 m 204 174 q 299 51 204 51 q 460 138 374 51 l 460 326 l 347 317 q 242 272 281 311 q 204 174 204 233 z "},"b":{"ha":764,"x_min":19,"x_max":707,"o":"m 124 0 l 124 831 q 99 897 124 878 q 19 918 75 915 l 24 963 q 222 1014 81 972 l 251 999 l 251 608 q 424 713 311 713 q 639 617 571 713 q 707 356 707 521 q 626 90 707 192 q 394 -11 546 -11 q 225 63 301 -11 q 194 0 204 32 l 124 0 m 251 307 l 251 128 q 393 53 332 53 q 490 78 454 53 q 543 153 526 104 q 571 328 571 233 q 567 467 571 422 q 549 557 563 511 q 424 649 521 649 q 279 539 314 649 q 251 307 251 449 z "},"c":{"ha":651,"x_min":57,"x_max":608,"o":"m 371 -7 q 132 78 207 -7 q 57 349 57 164 q 378 708 57 708 q 544 665 481 708 q 608 550 608 621 q 585 488 608 514 q 531 461 561 461 q 479 476 501 461 q 451 515 457 492 q 471 576 471 546 q 445 631 471 607 q 378 654 419 654 q 240 581 283 654 q 196 349 196 508 q 237 122 196 190 q 371 53 278 53 q 543 185 494 53 l 604 164 q 517 39 579 85 q 371 -7 454 -7 z "},"d":{"ha":771,"x_min":57,"x_max":740,"o":"m 324 -10 q 57 336 57 -10 q 142 616 57 519 q 386 713 226 713 q 508 688 444 713 l 508 819 q 485 895 508 875 q 404 918 463 915 l 408 963 q 607 1014 465 972 l 636 999 l 636 92 q 740 51 674 64 l 735 0 l 519 0 l 508 86 q 324 -10 447 -10 m 508 351 l 508 618 q 374 649 456 649 q 240 567 292 649 q 189 338 189 485 q 225 123 189 192 q 338 54 261 54 q 508 351 508 54 z "},"e":{"ha":675,"x_min":58,"x_max":629,"o":"m 196 363 l 196 340 q 242 108 196 168 q 383 53 285 53 q 550 135 481 53 l 597 88 q 369 -11 513 -11 q 130 82 201 -11 q 58 349 58 175 q 136 617 58 522 q 361 713 214 713 q 567 635 508 713 q 629 403 625 557 l 599 363 l 196 363 m 358 651 q 196 418 200 651 l 494 429 q 465 599 494 546 q 358 651 436 651 z "},"f":{"ha":508,"x_min":54,"x_max":572,"o":"m 172 625 l 61 625 l 54 676 q 172 703 129 689 l 172 785 q 224 985 172 910 q 389 1061 275 1061 q 517 1021 463 1061 q 572 928 572 981 q 549 851 572 875 q 497 826 525 826 q 426 885 438 826 q 454 938 454 913 q 434 979 454 963 q 379 996 414 996 q 282 878 282 996 q 291 793 282 854 q 300 703 300 732 l 456 703 l 456 625 l 300 625 l 300 92 q 414 51 335 67 l 408 0 l 68 0 l 74 54 q 172 92 133 64 l 172 625 z "},"g":{"ha":725,"x_min":64,"x_max":699,"o":"m 82 463 q 357 713 82 713 q 522 676 457 713 q 578 735 578 693 q 536 789 578 768 q 556 825 536 811 q 608 839 575 839 q 661 819 640 839 q 682 765 682 799 q 576 635 682 674 q 632 462 632 571 q 558 288 632 353 q 357 222 485 222 l 336 222 l 260 129 q 287 83 261 96 q 368 69 313 71 l 431 69 q 634 17 569 69 q 699 -118 699 -36 q 382 -326 699 -326 q 144 -276 224 -326 q 64 -144 64 -225 q 89 -27 64 -62 q 179 44 114 8 q 146 143 146 81 l 269 231 q 131 313 181 251 q 82 463 82 374 m 251 326 q 267 305 251 326 q 357 283 283 283 q 463 326 431 283 q 496 467 496 369 q 463 608 496 564 q 357 653 431 653 q 251 608 283 653 q 218 467 218 564 q 251 326 218 369 m 396 0 l 268 0 q 200 -118 200 -46 q 381 -265 200 -265 q 563 -118 563 -265 q 396 0 563 0 z "},"h":{"ha":815,"x_min":46,"x_max":796,"o":"m 150 819 q 127 895 150 875 q 46 918 104 915 l 50 963 q 249 1014 107 972 l 278 999 l 278 624 q 463 713 356 713 q 631 658 569 713 q 692 506 692 603 l 692 92 q 796 51 726 65 l 790 0 l 461 0 l 465 51 q 564 92 521 60 l 564 492 q 436 640 564 640 q 347 611 390 640 q 278 535 303 582 l 278 92 q 382 51 315 64 l 376 0 l 46 0 l 51 54 q 150 92 111 64 l 150 819 z "},"i":{"ha":415,"x_min":51,"x_max":388,"o":"m 156 522 q 133 598 156 578 q 51 621 110 618 l 56 665 q 254 717 113 675 l 283 701 l 283 92 q 388 51 321 64 l 382 0 l 51 0 l 57 54 q 156 92 117 64 l 156 522 m 290 910 q 290 867 290 910 q 212 824 290 824 q 133 910 133 824 q 212 997 133 997 q 290 910 290 997 z "},"j":{"ha":425,"x_min":-31,"x_max":301,"o":"m 301 910 q 301 867 301 910 q 223 824 301 824 q 144 910 144 824 q 223 997 144 997 q 301 910 301 997 m 174 110 l 301 110 l 301 -49 q 219 -300 301 -247 q 122 -324 183 -324 q 15 -296 60 -324 q -31 -208 -31 -268 q -11 -150 -31 -174 q 45 -126 8 -126 q 99 -156 82 -126 q 76 -201 76 -175 q 91 -243 76 -228 q 132 -258 106 -258 q 192 -161 192 -258 q 183 -37 192 -112 q 174 110 174 39 m 174 110 l 174 522 q 151 598 174 578 q 69 621 128 618 l 74 665 q 272 717 131 675 l 301 701 l 301 110 l 174 110 z "},"k":{"ha":763,"x_min":49,"x_max":783,"o":"m 153 819 q 130 895 153 875 q 49 918 107 915 l 53 963 q 251 1014 110 972 l 281 999 l 281 414 l 474 619 q 519 703 503 649 l 719 703 l 724 658 q 564 593 622 654 l 431 456 l 649 94 q 783 51 697 64 l 778 0 l 564 0 l 346 368 l 281 301 l 281 92 q 385 51 318 64 l 379 0 l 49 0 l 54 54 q 153 92 114 64 l 153 819 z "},"l":{"ha":419,"x_min":46,"x_max":382,"o":"m 150 819 q 127 895 150 875 q 46 918 104 915 l 50 963 q 249 1014 107 972 l 278 999 l 278 92 q 382 51 315 64 l 376 0 l 46 0 l 51 54 q 150 92 111 64 l 150 819 z "},"m":{"ha":1188,"x_min":47,"x_max":1167,"o":"m 151 519 q 128 595 151 575 q 47 618 106 615 l 51 663 q 235 713 82 668 l 261 699 l 272 621 q 301 651 283 635 q 362 690 318 668 q 450 713 406 713 q 642 615 585 713 q 838 713 739 713 q 999 658 936 713 q 1063 488 1063 604 l 1063 92 q 1167 51 1097 65 l 1161 0 l 832 0 l 836 51 q 935 92 892 60 l 935 492 q 822 640 935 640 q 728 603 772 640 q 671 524 685 567 l 671 92 q 775 51 706 65 l 769 0 l 440 0 l 444 51 q 543 92 500 60 l 543 492 q 431 640 543 640 q 337 603 381 640 q 279 524 293 567 l 279 92 q 383 51 317 64 l 378 0 l 47 0 l 53 54 q 151 92 113 64 l 151 519 z "},"n":{"ha":825,"x_min":46,"x_max":806,"o":"m 150 519 q 127 595 150 575 q 46 618 104 615 l 50 663 q 233 713 81 668 l 260 699 l 274 606 q 465 713 351 713 q 640 658 579 713 q 701 506 701 603 l 701 92 q 806 51 736 65 l 800 0 l 471 0 l 475 51 q 574 92 531 60 l 574 492 q 446 640 574 640 q 347 606 394 640 q 278 515 300 571 l 278 92 q 382 51 315 64 l 376 0 l 46 0 l 51 54 q 150 92 111 64 l 150 519 z "},"o":{"ha":733,"x_min":57,"x_max":676,"o":"m 190 351 q 190 274 190 351 q 232 127 190 196 q 367 58 274 58 q 503 127 461 58 q 544 351 544 196 q 503 574 544 506 q 367 643 461 643 q 231 575 272 643 q 190 351 190 507 m 598 81 q 559 35 598 81 q 367 -11 519 -11 q 135 81 214 -11 q 57 351 57 174 q 135 620 57 528 q 367 713 214 713 q 598 620 519 713 q 676 351 676 528 q 598 81 676 174 z "},"p":{"ha":781,"x_min":40,"x_max":724,"o":"m 144 519 q 122 595 144 575 q 40 618 99 615 l 44 663 q 228 713 75 668 l 254 699 l 267 608 q 457 711 328 711 q 724 365 724 711 q 639 85 724 182 q 394 -11 554 -11 q 272 13 336 -11 l 272 -225 q 376 -265 310 -253 l 371 -317 l 40 -317 l 46 -262 q 144 -225 106 -253 l 144 519 m 272 364 l 272 82 q 406 53 322 53 q 540 135 489 53 q 592 363 592 217 q 556 578 592 510 q 443 647 519 647 q 272 364 272 647 z "},"q":{"ha":765,"x_min":57,"x_max":743,"o":"m 340 -11 q 125 85 193 -11 q 57 347 57 181 q 132 613 57 514 q 368 713 207 713 q 536 642 446 713 l 558 703 l 639 703 l 639 -225 q 743 -265 676 -253 l 738 -317 l 407 -317 l 413 -262 q 511 -225 472 -253 l 511 89 q 340 -11 451 -11 m 511 358 l 511 574 q 364 649 433 649 q 283 628 317 649 q 232 582 249 608 q 206 510 215 556 q 193 373 193 451 q 195 257 193 294 q 206 178 197 219 q 231 111 215 138 q 340 53 265 53 q 481 147 444 53 q 511 358 511 229 z "},"r":{"ha":611,"x_min":51,"x_max":593,"o":"m 156 519 q 133 595 156 575 q 51 618 110 615 l 56 663 q 239 713 86 668 l 265 699 l 281 594 q 460 713 360 713 q 553 681 514 713 q 593 601 593 649 q 572 525 593 553 q 519 497 550 497 q 465 510 488 497 q 438 543 443 522 q 453 585 453 558 q 410 631 453 631 q 325 567 367 631 q 283 432 283 503 l 283 92 q 401 51 325 64 l 396 0 l 51 0 l 57 54 q 156 92 117 64 l 156 519 z "},"s":{"ha":631,"x_min":79,"x_max":564,"o":"m 200 72 q 311 57 251 57 q 408 91 371 57 q 446 171 446 125 q 419 245 446 217 q 351 287 392 274 q 263 318 311 300 q 175 356 215 336 q 108 419 135 375 q 81 525 81 463 q 148 660 81 610 q 319 711 215 711 q 489 669 422 711 q 556 565 556 626 q 486 488 556 488 q 407 528 433 488 q 431 580 431 547 q 398 632 431 613 q 313 651 365 651 q 227 624 261 651 q 193 549 193 597 q 231 468 193 500 q 324 419 269 436 q 433 381 378 401 q 526 317 488 361 q 564 204 564 272 q 494 47 564 103 q 299 -8 425 -8 q 180 9 247 -8 q 79 49 113 26 l 79 233 l 160 243 q 200 72 169 129 z "},"t":{"ha":496,"x_min":28,"x_max":469,"o":"m 150 174 l 150 625 l 28 625 l 28 667 q 219 849 175 717 l 279 849 l 279 703 l 449 703 l 449 625 l 278 625 l 278 163 q 290 83 278 107 q 347 60 303 60 q 440 89 392 60 l 469 44 q 308 -11 400 -11 q 183 31 217 -11 q 150 174 150 74 z "},"u":{"ha":817,"x_min":19,"x_max":771,"o":"m 124 231 l 124 522 q 101 598 124 578 q 19 621 78 618 l 24 665 q 222 717 81 675 l 251 701 l 251 214 q 381 57 251 57 q 463 85 419 57 q 539 175 506 114 l 539 522 q 516 598 539 578 q 435 621 493 618 l 439 665 q 638 717 496 675 l 667 701 l 667 92 q 771 51 701 65 l 765 0 l 567 0 l 551 94 q 364 -11 471 -11 q 124 231 124 -11 z "},"v":{"ha":754,"x_min":-1,"x_max":756,"o":"m 324 0 l 106 596 q -1 658 89 642 l 3 703 l 336 703 l 332 658 q 239 625 269 650 l 397 144 l 556 625 q 467 658 524 649 l 471 703 l 756 703 l 751 658 q 650 614 660 642 l 424 0 l 324 0 z "},"w":{"ha":1076,"x_min":-3,"x_max":1069,"o":"m 304 0 l 104 596 q -3 658 89 642 l 1 703 l 335 703 l 331 658 q 238 625 268 650 l 372 169 l 519 678 l 578 678 l 738 169 l 871 625 q 782 658 839 649 l 786 703 l 1069 703 l 1065 658 q 965 614 975 642 l 758 0 l 667 0 l 531 425 l 396 0 l 304 0 z "},"x":{"ha":744,"x_min":7,"x_max":736,"o":"m 7 0 l 13 54 q 119 89 99 61 l 313 343 l 113 615 q 26 658 88 650 l 31 703 l 351 703 l 344 658 q 254 628 290 654 l 393 438 l 529 617 q 429 658 482 653 l 433 703 l 735 703 l 728 658 q 621 614 647 649 l 439 375 l 647 92 q 736 56 668 63 l 729 0 l 406 0 l 411 54 q 506 79 481 61 l 358 281 l 208 83 q 308 54 236 61 l 304 0 l 7 0 z "},"y":{"ha":764,"x_min":-1,"x_max":765,"o":"m 393 -137 q 308 -292 356 -246 q 197 -337 261 -337 q 92 -305 132 -337 q 53 -227 53 -272 q 74 -160 53 -182 q 124 -137 94 -137 q 179 -154 154 -137 q 161 -203 161 -179 q 175 -242 161 -228 q 217 -257 189 -257 q 315 -119 271 -257 l 351 -7 l 106 593 q -1 657 86 642 l 3 703 l 329 703 l 325 658 q 236 625 267 651 l 410 169 l 558 625 q 469 658 526 649 l 474 703 l 765 703 l 761 658 q 653 614 664 644 l 393 -137 z "},"z":{"ha":650,"x_min":53,"x_max":596,"o":"m 97 706 l 357 703 q 582 707 494 703 l 596 656 l 203 69 q 324 68 225 68 q 458 69 424 68 q 518 207 499 125 q 552 211 536 211 q 590 208 568 211 l 581 31 l 551 -4 q 339 0 493 0 l 65 -6 l 53 57 l 440 635 q 299 640 357 640 q 193 633 242 640 q 153 511 164 596 q 110 504 132 504 q 74 510 89 504 l 60 675 l 97 706 z "},"{":{"ha":399,"x_min":83,"x_max":364,"o":"m 364 -168 q 191 -102 265 -168 q 117 58 117 -36 q 135 183 117 89 q 154 313 154 278 q 137 373 154 347 q 101 406 119 399 l 83 413 l 83 461 q 103 468 92 463 q 135 500 115 474 q 154 561 154 526 q 135 690 154 596 q 117 814 117 783 q 191 974 117 908 q 364 1040 265 1040 l 364 993 q 258 940 294 988 q 222 838 222 892 q 235 717 222 785 q 247 608 247 649 q 182 438 247 492 q 247 265 247 382 q 235 157 247 225 q 222 35 222 89 q 258 -67 222 -18 q 364 -119 294 -115 l 364 -168 z "},"|":{"ha":374,"x_min":139,"x_max":235,"o":"m 139 -168 l 139 1040 l 235 1040 l 235 -168 l 139 -168 z "},"}":{"ha":399,"x_min":35,"x_max":315,"o":"m 35 -168 l 35 -119 q 140 -67 104 -115 q 176 35 176 -18 q 164 157 176 89 q 151 265 151 225 q 217 438 151 382 q 151 608 151 492 q 164 717 151 649 q 176 838 176 785 q 140 940 176 892 q 35 993 104 988 l 35 1040 q 208 974 133 1040 q 282 814 282 908 q 263 690 282 783 q 244 561 244 596 q 263 501 244 526 q 297 468 281 475 l 315 461 l 315 413 q 295 406 307 411 q 264 374 283 400 q 244 313 244 347 q 263 183 244 278 q 282 58 282 89 q 208 -102 282 -36 q 35 -168 133 -168 z "},"~":{"ha":786,"x_min":56,"x_max":731,"o":"m 254 490 q 409 454 297 490 q 558 418 521 418 q 699 478 626 418 q 731 449 717 467 q 549 325 654 325 q 383 363 497 325 q 225 400 269 400 q 86 340 158 400 q 56 371 67 350 q 254 490 147 490 z "}," ":{"ha":351,"x_min":0,"x_max":0,"o":""},"¡":{"ha":299,"x_min":49,"x_max":231,"o":"m 197 351 l 193 47 q 221 -312 193 -190 q 132 -337 189 -337 q 49 -225 49 -337 q 81 35 49 -174 q 119 338 113 243 l 197 351 m 210 511 q 200 500 210 511 q 157 489 190 489 q 104 511 124 489 q 85 565 85 533 q 105 619 85 597 q 158 640 125 640 q 210 619 190 640 q 231 565 231 597 q 210 511 231 533 z "},"¢":{"ha":651,"x_min":57,"x_max":608,"o":"m 57 442 q 125 670 57 585 q 322 771 193 756 l 322 924 l 331 933 q 382 926 354 933 l 382 774 q 545 728 482 772 q 608 618 608 685 q 585 558 608 583 q 531 533 561 533 q 479 548 501 533 q 451 585 457 563 q 469 640 469 611 q 444 690 469 669 q 382 713 419 710 l 382 176 q 543 301 496 181 l 604 282 q 521 163 581 208 q 382 114 461 117 l 382 -42 l 374 -51 q 322 -44 350 -51 l 322 115 q 57 442 57 139 m 322 707 q 222 623 249 690 q 196 471 196 556 q 201 347 196 386 q 218 269 206 307 q 322 181 243 197 l 322 707 z "},"£":{"ha":797,"x_min":42,"x_max":751,"o":"m 182 629 q 262 833 182 761 q 485 906 342 906 q 652 858 579 906 q 725 722 725 811 q 701 647 725 676 q 645 617 676 617 q 591 631 614 617 q 561 667 568 644 q 588 739 588 701 q 557 801 588 776 q 472 826 526 826 q 318 640 318 826 q 351 474 318 585 l 564 474 q 571 424 571 446 l 561 414 l 369 414 q 389 284 389 343 q 363 154 389 225 q 582 114 481 114 q 668 206 668 114 q 728 178 706 204 q 751 113 751 151 q 706 20 751 50 q 589 -10 661 -10 q 518 0 558 -10 q 449 24 478 10 q 411 44 421 39 q 333 92 378 63 q 168 -11 268 -11 q 78 15 115 -11 q 42 91 42 42 q 79 172 42 140 q 166 203 117 203 q 269 186 215 203 q 271 239 271 197 q 229 414 271 281 l 99 414 q 92 464 92 442 l 101 474 l 213 474 q 182 629 182 578 m 174 147 q 110 93 110 147 q 167 47 110 47 q 261 128 239 47 q 174 147 213 147 z "},"¤":{"ha":788,"x_min":97,"x_max":690,"o":"m 183 257 q 124 444 124 329 q 189 633 124 560 l 97 731 l 156 788 l 253 683 q 394 715 314 715 q 535 683 475 715 l 632 788 l 690 731 l 599 633 q 664 446 664 561 q 603 257 664 331 l 690 161 l 632 104 l 540 206 q 396 171 481 171 q 246 206 311 171 l 156 104 l 97 161 l 183 257 m 221 442 q 221 393 221 442 q 264 288 221 344 q 394 232 307 232 q 524 288 481 232 q 567 443 567 344 q 524 598 567 542 q 393 654 481 654 q 263 597 306 654 q 221 442 221 540 z "},"¥":{"ha":872,"x_min":21,"x_max":851,"o":"m 378 299 l 126 299 q 119 349 119 326 l 129 358 l 372 358 l 321 453 l 126 453 q 119 503 119 481 l 129 513 l 288 513 l 143 776 q 21 826 114 817 l 28 879 l 404 879 l 397 826 q 279 793 319 817 l 458 460 l 642 793 q 513 826 597 817 l 519 879 l 851 879 l 843 826 q 729 782 757 824 l 585 513 l 742 513 q 749 463 749 485 l 739 453 l 553 453 l 503 358 l 742 358 q 749 308 749 331 l 739 299 l 503 299 l 503 89 q 646 53 550 64 l 639 0 l 236 0 l 243 53 q 378 89 332 63 l 378 299 z "},"¦":{"ha":374,"x_min":139,"x_max":235,"o":"m 139 550 l 139 1040 l 235 1040 l 235 550 l 139 550 m 139 -168 l 139 350 l 235 350 l 235 -168 l 139 -168 z "},"§":{"ha":701,"x_min":61,"x_max":607,"o":"m 174 768 q 142 666 142 732 q 178 538 142 600 q 267 421 215 476 q 370 307 318 365 q 459 175 422 249 q 496 26 496 101 q 528 134 528 63 q 492 272 528 206 q 406 392 457 339 q 303 500 356 446 q 214 624 251 554 q 174 768 176 693 m 233 97 q 200 17 200 64 q 230 -53 200 -31 q 310 -76 260 -76 q 415 33 415 -76 q 372 175 415 111 q 285 290 333 235 q 197 396 238 344 q 131 481 156 447 q 83 569 106 515 q 61 679 61 622 q 142 876 61 803 q 344 949 222 949 q 528 899 465 949 q 590 768 590 850 q 569 694 590 721 q 503 667 549 667 q 429 710 458 667 q 463 790 463 743 q 433 860 463 838 q 354 883 403 883 q 250 774 250 883 q 270 677 250 724 q 314 602 290 631 q 385 522 338 574 q 447 451 432 471 q 492 396 463 432 q 528 349 521 360 q 557 306 536 339 q 585 253 578 274 q 607 128 607 183 q 524 -68 607 6 q 319 -142 442 -142 q 132 -93 197 -142 q 67 36 67 -44 q 89 110 67 81 q 158 140 111 140 q 233 97 204 140 z "},"¨":{"ha":514,"x_min":69,"x_max":461,"o":"m 211 906 q 211 867 211 906 q 140 828 211 828 q 69 906 69 828 q 140 985 69 985 q 211 906 211 985 m 389 828 q 319 906 319 828 q 389 985 319 985 q 461 906 461 985 q 389 828 461 828 z "},"©":{"ha":931,"x_min":67,"x_max":864,"o":"m 231 228 q 280 179 231 228 q 465 129 329 129 q 699 228 601 129 q 797 468 797 328 q 699 708 797 608 q 465 807 601 807 q 231 708 329 807 q 133 468 133 608 q 231 228 133 328 m 183 189 q 125 247 183 189 q 67 468 67 304 q 183 747 67 632 q 465 863 300 863 q 747 747 631 863 q 864 468 864 632 q 748 189 864 304 q 465 74 632 74 q 183 189 299 74 m 471 260 q 333 313 385 260 q 282 467 282 365 q 335 622 282 568 q 467 676 388 676 q 589 643 546 676 q 632 564 632 610 q 617 525 632 539 q 582 511 601 511 q 535 543 543 511 q 543 578 543 560 q 524 610 543 597 q 467 624 506 624 q 399 585 428 624 q 369 469 369 547 q 399 351 369 390 q 474 313 428 313 q 588 385 551 313 l 629 361 q 471 260 585 260 z "},"ª":{"ha":500,"x_min":49,"x_max":475,"o":"m 311 525 q 190 482 261 482 q 83 513 118 482 q 49 603 49 543 q 97 701 49 664 q 235 746 144 739 l 306 751 l 306 824 q 288 899 306 875 q 235 922 271 922 q 160 881 160 922 q 176 843 160 864 q 158 808 175 821 q 119 796 142 796 q 78 811 96 796 q 60 853 60 826 q 108 937 60 906 q 236 968 156 968 q 361 930 317 968 q 406 824 406 892 l 406 553 q 475 528 428 538 l 471 489 l 319 489 l 311 525 m 151 607 q 213 529 151 529 q 306 569 258 529 l 306 704 l 239 699 q 175 671 199 696 q 151 607 151 646 m 49 356 l 49 407 l 472 407 l 472 356 l 49 356 z "},"«":{"ha":550,"x_min":35,"x_max":494,"o":"m 231 118 l 35 351 l 233 575 l 278 544 l 163 351 l 278 149 l 231 118 m 447 118 l 251 351 l 450 575 l 494 544 l 379 351 l 494 149 l 447 118 z "},"¬":{"ha":758,"x_min":90,"x_max":675,"o":"m 90 464 l 90 543 l 675 543 l 675 464 l 90 464 m 90 213 l 90 464 l 181 464 l 181 213 l 90 213 z "},"­":{"ha":499,"x_min":42,"x_max":457,"o":"m 42 335 l 42 415 l 457 415 l 457 335 l 42 335 z "},"®":{"ha":931,"x_min":67,"x_max":864,"o":"m 231 228 q 280 179 231 228 q 465 129 329 129 q 699 228 601 129 q 797 468 797 328 q 699 708 797 608 q 465 807 601 807 q 231 708 329 807 q 133 468 133 608 q 231 228 133 328 m 183 189 q 125 247 183 189 q 67 468 67 304 q 183 747 67 632 q 465 863 300 863 q 747 747 631 863 q 864 468 864 632 q 748 189 864 304 q 465 74 632 74 q 183 189 299 74 m 468 679 q 621 568 621 679 q 536 467 621 490 q 572 424 560 453 l 622 317 l 671 304 l 667 269 l 553 269 l 500 406 q 474 445 488 438 q 422 453 460 453 l 422 317 l 481 303 l 476 269 l 286 269 l 292 303 l 346 317 l 346 631 l 286 646 l 292 679 l 468 679 m 422 497 l 442 497 q 543 567 543 497 q 468 638 543 638 l 422 638 l 422 497 z "},"¯":{"ha":519,"x_min":51,"x_max":468,"o":"m 51 854 l 51 933 l 468 933 l 468 854 l 51 854 z "},"°":{"ha":567,"x_min":56,"x_max":511,"o":"m 121 568 q 88 601 121 568 q 56 726 56 633 q 121 885 56 819 q 283 950 186 950 q 446 885 381 950 q 511 726 511 819 q 446 568 511 633 q 283 503 381 503 q 121 568 186 503 m 191 603 q 207 580 191 603 q 283 556 224 556 q 376 603 343 556 q 408 725 408 651 q 374 848 408 799 q 283 897 340 897 q 192 848 226 897 q 158 725 158 799 q 191 603 158 651 z "},"±":{"ha":757,"x_min":114,"x_max":643,"o":"m 114 403 l 114 482 l 329 482 l 329 692 l 419 692 l 419 482 l 643 482 l 643 403 l 419 403 l 419 193 l 329 193 l 329 403 l 114 403 m 114 58 l 114 138 l 643 138 l 643 58 l 114 58 z "},"²":{"ha":515,"x_min":58,"x_max":460,"o":"m 58 494 l 58 554 q 275 760 215 683 q 335 907 335 838 q 246 1001 335 1001 q 183 980 206 1001 q 160 931 160 958 q 181 874 160 903 q 127 850 157 850 q 78 868 97 850 q 60 922 60 886 q 115 1018 60 976 q 252 1060 169 1060 q 385 1017 335 1060 q 436 901 436 974 q 378 753 436 829 q 182 572 319 676 l 460 572 l 460 494 l 58 494 z "},"³":{"ha":515,"x_min":50,"x_max":444,"o":"m 185 811 q 333 922 333 817 q 251 1001 333 1001 q 191 982 213 1001 q 169 940 169 963 q 181 899 169 918 q 127 879 153 879 q 88 897 101 879 q 74 943 74 914 q 124 1026 74 992 q 254 1060 175 1060 q 382 1022 333 1060 q 431 922 431 983 q 322 790 431 832 q 444 650 444 757 q 389 535 444 581 q 244 489 333 489 q 103 526 156 489 q 50 624 50 564 q 68 665 50 650 q 113 679 86 679 q 164 660 140 679 q 156 611 156 636 q 181 567 156 586 q 249 547 206 547 q 344 650 344 547 q 305 733 344 701 q 190 765 265 764 l 185 765 l 185 811 z "},"´":{"ha":363,"x_min":47,"x_max":274,"o":"m 172 994 q 215 1019 188 1019 q 258 1003 242 1019 q 274 964 274 988 q 236 910 274 940 l 81 785 l 47 821 l 172 994 z "},"µ":{"ha":819,"x_min":22,"x_max":774,"o":"m 126 -307 l 126 522 q 103 598 126 578 q 22 621 81 618 l 26 665 q 225 717 83 675 l 254 701 l 254 214 q 383 57 254 57 q 465 85 422 57 q 542 175 508 114 l 542 522 q 519 598 542 578 q 438 621 496 618 l 442 665 q 640 717 499 675 l 669 701 l 669 92 q 774 51 704 65 l 768 0 l 569 0 l 554 94 q 367 -11 474 -11 q 254 7 306 -11 l 254 -307 l 126 -307 z "},"¶":{"ha":736,"x_min":90,"x_max":699,"o":"m 368 -93 l 368 426 q 160 499 231 439 q 90 683 90 558 q 166 873 90 807 q 408 939 242 939 l 699 939 l 690 883 q 556 844 604 874 l 556 43 q 538 -72 556 -22 q 495 -147 521 -121 q 435 -190 469 -174 q 310 -217 379 -217 q 144 -101 144 -217 q 164 -43 144 -67 q 220 -19 183 -19 q 274 -49 257 -19 q 247 -114 247 -74 q 308 -169 247 -169 q 353 -148 338 -169 q 368 -93 368 -126 m 479 -26 l 479 872 l 425 876 l 425 -74 q 401 -154 425 -131 q 479 -26 479 -132 m 225 683 q 368 500 225 532 l 368 874 q 225 683 225 854 z "},"·":{"ha":275,"x_min":68,"x_max":214,"o":"m 194 424 q 184 413 194 424 q 140 401 174 401 q 88 424 107 401 q 68 478 68 446 q 88 531 68 510 q 141 553 108 553 q 194 531 174 553 q 214 478 214 510 q 194 424 214 446 z "},"¸":{"ha":313,"x_min":1,"x_max":281,"o":"m 167 -69 q 251 -106 222 -79 q 281 -185 281 -133 q 240 -272 281 -237 q 135 -306 199 -306 q 36 -276 71 -306 q 1 -215 1 -246 q 15 -166 1 -183 q 47 -149 28 -149 q 78 -154 65 -149 q 72 -185 72 -176 q 92 -236 72 -217 q 139 -256 111 -256 q 204 -181 204 -256 q 122 -114 204 -125 l 94 -83 l 154 14 l 193 6 l 167 -69 z "},"¹":{"ha":517,"x_min":113,"x_max":417,"o":"m 228 965 l 113 965 l 113 1007 q 285 1058 211 1022 l 322 1043 l 322 561 l 417 536 l 413 494 l 119 494 l 124 536 l 228 561 l 228 965 z "},"º":{"ha":500,"x_min":49,"x_max":476,"o":"m 177 578 q 190 556 177 578 q 261 533 203 533 q 346 578 319 533 q 372 725 372 624 q 346 871 372 826 q 261 915 319 915 q 177 871 203 915 q 151 725 151 826 q 177 578 151 624 m 475 725 q 262 482 475 482 q 49 725 49 482 q 261 968 49 968 q 421 906 367 968 q 475 725 475 843 m 49 356 l 49 407 l 476 407 l 476 356 l 49 356 z "},"»":{"ha":550,"x_min":56,"x_max":515,"o":"m 56 149 l 169 351 l 56 544 l 100 575 l 299 351 l 103 118 l 56 149 m 272 149 l 386 351 l 272 544 l 317 575 l 515 351 l 319 118 l 272 149 z "},"¼":{"ha":1107,"x_min":69,"x_max":1046,"o":"m 185 850 l 69 850 l 69 892 q 242 943 168 907 l 279 928 l 279 446 l 374 421 l 369 379 l 76 379 l 81 421 l 185 446 l 185 850 m 267 0 l 690 939 l 767 904 l 342 -37 l 267 0 m 867 194 l 867 344 q 931 382 919 344 l 964 382 l 964 193 l 1046 179 l 1046 135 l 961 135 l 961 -1 l 867 -1 l 867 135 l 603 135 l 594 172 l 790 553 q 882 528 851 553 l 688 194 l 867 194 z "},"½":{"ha":1107,"x_min":69,"x_max":1046,"o":"m 185 850 l 69 850 l 69 892 q 242 943 168 907 l 279 928 l 279 446 l 374 421 l 369 379 l 76 379 l 81 421 l 185 446 l 185 850 m 267 0 l 690 939 l 767 904 l 342 -37 l 267 0 m 644 1 l 644 61 q 861 267 801 190 q 921 414 921 344 q 832 508 921 508 q 769 487 792 508 q 746 438 746 465 q 767 381 746 410 q 713 357 743 357 q 665 374 683 357 q 646 429 646 392 q 701 525 646 483 q 838 567 756 567 q 972 524 921 567 q 1022 408 1022 481 q 964 260 1022 336 q 768 79 906 183 l 1046 79 l 1046 1 l 644 1 z "},"¾":{"ha":1107,"x_min":61,"x_max":1063,"o":"m 196 696 q 344 807 344 701 q 263 886 344 886 q 202 867 224 886 q 181 825 181 847 q 192 783 181 803 q 138 764 164 764 q 99 781 113 764 q 85 828 85 799 q 135 910 85 876 q 265 944 186 944 q 393 906 344 944 q 442 807 442 868 q 333 675 442 717 q 456 535 456 642 q 400 419 456 465 q 256 374 344 374 q 114 411 167 374 q 61 508 61 449 q 79 549 61 535 q 124 564 97 564 q 175 544 151 564 q 167 497 167 522 q 192 451 167 471 q 260 432 217 432 q 356 535 356 432 q 316 617 356 586 q 201 650 276 649 l 196 650 l 196 696 m 311 0 l 735 939 l 811 904 l 386 -37 l 311 0 m 883 196 l 883 346 q 947 383 936 346 l 981 383 l 981 194 l 1063 181 l 1063 136 l 978 136 l 978 0 l 883 0 l 883 136 l 619 136 l 611 174 l 807 554 q 899 529 868 554 l 704 196 l 883 196 z "},"¿":{"ha":544,"x_min":35,"x_max":510,"o":"m 436 -87 q 510 -168 510 -87 q 441 -287 510 -249 q 271 -326 372 -326 q 102 -281 169 -326 q 35 -136 35 -235 q 119 56 35 -29 q 189 122 154 90 q 275 263 275 199 q 267 328 275 292 q 332 353 297 353 q 386 326 367 353 q 406 251 406 299 q 380 159 406 204 q 317 82 354 114 q 242 18 279 50 q 153 -154 153 -58 q 188 -233 153 -203 q 272 -262 224 -262 q 351 -244 321 -262 q 381 -193 381 -225 q 364 -132 381 -161 q 436 -87 393 -87 m 387 511 q 377 500 387 511 q 333 489 367 489 q 281 511 300 489 q 261 565 261 533 q 281 619 261 597 q 334 640 301 640 q 387 619 367 640 q 407 565 407 597 q 387 511 407 533 z "},"À":{"ha":985,"x_min":0,"x_max":985,"o":"m 0 0 l 8 56 q 122 94 82 65 l 431 940 l 544 940 l 878 93 q 985 56 913 67 l 978 0 l 582 0 l 590 56 q 722 93 679 65 l 638 315 l 300 315 l 221 92 q 360 56 267 67 l 353 0 l 0 0 m 328 393 l 608 393 l 463 774 l 328 393 m 379 1104 q 342 1158 342 1135 q 358 1198 342 1182 q 401 1214 374 1214 q 443 1189 428 1214 l 568 1015 l 535 979 l 379 1104 z "},"Á":{"ha":985,"x_min":0,"x_max":985,"o":"m 0 0 l 8 56 q 122 94 82 65 l 431 940 l 544 940 l 878 93 q 985 56 913 67 l 978 0 l 582 0 l 590 56 q 722 93 679 65 l 638 315 l 300 315 l 221 92 q 360 56 267 67 l 353 0 l 0 0 m 328 393 l 608 393 l 463 774 l 328 393 m 524 1189 q 566 1214 539 1214 q 609 1198 593 1214 q 625 1158 625 1182 q 588 1104 625 1135 l 432 979 l 399 1015 l 524 1189 z "},"Â":{"ha":985,"x_min":0,"x_max":985,"o":"m 0 0 l 8 56 q 122 94 82 65 l 431 940 l 544 940 l 878 93 q 985 56 913 67 l 978 0 l 582 0 l 590 56 q 722 93 679 65 l 638 315 l 300 315 l 221 92 q 360 56 267 67 l 353 0 l 0 0 m 328 393 l 608 393 l 463 774 l 328 393 m 439 1189 q 485 1213 458 1213 q 532 1189 513 1213 l 671 1029 l 638 993 l 485 1108 l 333 993 l 300 1029 l 439 1189 z "},"Ã":{"ha":985,"x_min":0,"x_max":985,"o":"m 0 0 l 8 56 q 122 94 82 65 l 431 940 l 544 940 l 878 93 q 985 56 913 67 l 978 0 l 582 0 l 590 56 q 722 93 679 65 l 638 315 l 300 315 l 221 92 q 360 56 267 67 l 353 0 l 0 0 m 328 393 l 608 393 l 463 774 l 328 393 m 253 1054 q 310 1138 271 1097 q 392 1178 349 1178 q 491 1148 436 1178 q 574 1118 546 1118 q 672 1178 621 1118 q 721 1149 697 1168 q 664 1065 703 1104 q 581 1025 625 1025 q 482 1055 536 1025 q 399 1085 428 1085 q 301 1025 353 1085 q 253 1054 278 1031 z "},"Ä":{"ha":985,"x_min":0,"x_max":985,"o":"m 0 0 l 8 56 q 122 94 82 65 l 431 940 l 544 940 l 878 93 q 985 56 913 67 l 978 0 l 582 0 l 590 56 q 722 93 679 65 l 638 315 l 300 315 l 221 92 q 360 56 267 67 l 353 0 l 0 0 m 328 393 l 608 393 l 463 774 l 328 393 m 431 1101 q 431 1061 431 1101 q 360 1022 431 1022 q 289 1101 289 1022 q 360 1179 289 1179 q 431 1101 431 1179 m 608 1022 q 539 1101 539 1022 q 608 1179 539 1179 q 681 1101 681 1179 q 608 1022 681 1022 z "},"Å":{"ha":985,"x_min":0,"x_max":985,"o":"m 0 0 l 8 56 q 122 94 82 65 l 431 940 l 544 940 l 878 93 q 985 56 913 67 l 978 0 l 582 0 l 590 56 q 722 93 679 65 l 638 315 l 300 315 l 221 92 q 360 56 267 67 l 353 0 l 0 0 m 328 393 l 608 393 l 463 774 l 328 393 m 392 1008 q 374 1026 392 1008 q 357 1097 357 1043 q 392 1186 357 1151 q 484 1221 426 1221 q 578 1186 542 1221 q 614 1097 614 1151 q 578 1008 614 1043 q 484 974 542 974 q 392 1008 426 974 m 438 1051 q 447 1041 438 1051 q 483 1032 456 1032 q 531 1051 511 1032 q 551 1098 551 1071 q 531 1144 551 1125 q 483 1164 511 1164 q 438 1144 456 1164 q 419 1097 419 1125 q 438 1051 419 1069 z "},"Æ":{"ha":1235,"x_min":0,"x_max":1178,"o":"m 1158 714 q 1119 707 1138 707 q 1094 708 1101 707 q 1025 860 1075 799 l 740 860 l 740 519 l 921 519 q 975 547 953 519 q 1004 621 997 575 l 1051 621 l 1051 329 l 1004 329 q 921 442 992 442 l 740 442 l 740 85 l 1046 85 q 1117 253 1096 151 q 1144 256 1136 256 q 1178 253 1153 256 l 1164 0 l 465 0 l 474 56 q 608 94 572 67 l 608 442 l 396 442 l 203 85 q 329 56 254 63 l 322 0 l 0 0 l 8 56 q 75 83 49 63 q 126 147 101 104 l 569 939 l 1146 939 l 1158 714 m 608 519 l 608 831 l 439 519 l 608 519 z "},"Ç":{"ha":840,"x_min":67,"x_max":810,"o":"m 67 467 q 492 947 67 947 q 744 865 658 947 q 792 761 792 819 q 766 669 792 703 q 708 636 740 636 q 651 652 675 636 q 619 694 626 668 q 647 777 647 735 q 605 845 647 819 q 493 871 563 871 q 279 776 344 871 q 214 467 214 681 q 278 160 214 253 q 492 67 342 67 q 594 86 540 67 q 740 240 699 125 l 810 215 q 750 110 788 156 q 676 43 713 65 q 597 8 640 21 q 454 -8 518 -15 l 433 -69 q 518 -106 489 -79 q 547 -185 547 -133 q 506 -272 547 -237 q 401 -306 465 -306 q 303 -276 338 -306 q 268 -215 268 -246 q 281 -166 268 -183 q 313 -149 294 -149 q 344 -154 332 -149 q 339 -185 339 -176 q 358 -236 339 -217 q 406 -256 378 -256 q 471 -181 471 -256 q 389 -114 471 -125 l 361 -83 l 408 -4 q 149 130 231 15 q 67 467 67 244 z "},"È":{"ha":879,"x_min":60,"x_max":822,"o":"m 788 714 q 749 707 767 707 q 724 708 731 707 q 654 860 704 799 l 335 860 l 335 514 l 550 529 q 633 628 610 533 l 681 628 l 681 336 l 633 336 q 549 444 613 440 l 335 460 l 335 85 l 690 85 q 761 253 740 151 q 789 256 781 256 q 822 253 797 256 l 808 0 l 60 0 l 68 56 q 203 94 167 67 l 203 844 q 60 883 153 872 l 67 939 l 775 939 l 788 714 m 363 1104 q 325 1158 325 1135 q 341 1198 325 1182 q 384 1214 357 1214 q 426 1189 411 1214 l 551 1015 l 518 979 l 363 1104 z "},"É":{"ha":879,"x_min":60,"x_max":822,"o":"m 507 1189 q 549 1214 522 1214 q 592 1198 576 1214 q 608 1158 608 1182 q 571 1104 608 1135 l 415 979 l 382 1015 l 507 1189 m 788 714 q 749 707 767 707 q 724 708 731 707 q 654 860 704 799 l 335 860 l 335 514 l 550 529 q 633 628 610 533 l 681 628 l 681 336 l 633 336 q 549 444 613 440 l 335 460 l 335 85 l 690 85 q 761 253 740 151 q 789 256 781 256 q 822 253 797 256 l 808 0 l 60 0 l 68 56 q 203 94 167 67 l 203 844 q 60 883 153 872 l 67 939 l 775 939 l 788 714 z "},"Ê":{"ha":879,"x_min":60,"x_max":822,"o":"m 422 1189 q 469 1213 442 1213 q 515 1189 496 1213 l 654 1029 l 621 993 l 468 1108 l 317 993 l 283 1029 l 422 1189 m 788 714 q 749 707 767 707 q 724 708 731 707 q 654 860 704 799 l 335 860 l 335 514 l 550 529 q 633 628 610 533 l 681 628 l 681 336 l 633 336 q 549 444 613 440 l 335 460 l 335 85 l 690 85 q 761 253 740 151 q 789 256 781 256 q 822 253 797 256 l 808 0 l 60 0 l 68 56 q 203 94 167 67 l 203 844 q 60 883 153 872 l 67 939 l 775 939 l 788 714 z "},"Ë":{"ha":879,"x_min":60,"x_max":822,"o":"m 414 1101 q 414 1061 414 1101 q 343 1022 414 1022 q 272 1101 272 1022 q 343 1179 272 1179 q 414 1101 414 1179 m 592 1022 q 522 1101 522 1022 q 592 1179 522 1179 q 664 1101 664 1179 q 592 1022 664 1022 m 788 714 q 749 707 767 707 q 724 708 731 707 q 654 860 704 799 l 335 860 l 335 514 l 550 529 q 633 628 610 533 l 681 628 l 681 336 l 633 336 q 549 444 613 440 l 335 460 l 335 85 l 690 85 q 761 253 740 151 q 789 256 781 256 q 822 253 797 256 l 808 0 l 60 0 l 68 56 q 203 94 167 67 l 203 844 q 60 883 153 872 l 67 939 l 775 939 l 788 714 z "},"Ì":{"ha":557,"x_min":69,"x_max":488,"o":"m 69 0 l 78 56 q 213 94 164 65 l 213 844 q 69 883 163 872 l 76 939 l 488 939 l 479 883 q 344 844 393 874 l 344 94 q 488 56 394 67 l 481 0 l 69 0 m 165 1104 q 128 1158 128 1135 q 144 1198 128 1182 q 187 1214 160 1214 q 229 1189 214 1214 l 354 1015 l 321 979 l 165 1104 z "},"Í":{"ha":557,"x_min":69,"x_max":488,"o":"m 69 0 l 78 56 q 213 94 164 65 l 213 844 q 69 883 163 872 l 76 939 l 488 939 l 479 883 q 344 844 393 874 l 344 94 q 488 56 394 67 l 481 0 l 69 0 m 310 1189 q 352 1214 325 1214 q 395 1198 379 1214 q 411 1158 411 1182 q 374 1104 411 1135 l 218 979 l 185 1015 l 310 1189 z "},"Î":{"ha":557,"x_min":69,"x_max":488,"o":"m 225 1189 q 272 1213 244 1213 q 318 1189 299 1213 l 457 1029 l 424 993 l 271 1108 l 119 993 l 86 1029 l 225 1189 m 69 0 l 78 56 q 213 94 164 65 l 213 844 q 69 883 163 872 l 76 939 l 488 939 l 479 883 q 344 844 393 874 l 344 94 q 488 56 394 67 l 481 0 l 69 0 z "},"Ï":{"ha":557,"x_min":69,"x_max":488,"o":"m 217 1101 q 217 1061 217 1101 q 146 1022 217 1022 q 75 1101 75 1022 q 146 1179 75 1179 q 217 1101 217 1179 m 394 1022 q 325 1101 325 1022 q 394 1179 325 1179 q 467 1101 467 1179 q 394 1022 467 1022 m 69 0 l 78 56 q 213 94 164 65 l 213 844 q 69 883 163 872 l 76 939 l 488 939 l 479 883 q 344 844 393 874 l 344 94 q 488 56 394 67 l 481 0 l 69 0 z "},"Ð":{"ha":990,"x_min":60,"x_max":925,"o":"m 207 443 l 60 443 l 60 514 l 207 514 l 207 844 q 64 883 157 872 l 71 939 l 410 939 q 797 826 668 939 q 925 467 925 713 q 796 111 925 222 q 401 0 667 0 l 64 0 l 72 56 q 207 93 158 65 l 207 443 m 431 865 l 339 864 l 339 514 l 518 514 l 528 504 q 503 443 521 474 l 339 443 l 339 74 l 426 74 q 690 163 603 74 q 776 468 776 251 q 691 775 776 685 q 431 865 606 865 z "},"Ñ":{"ha":1074,"x_min":53,"x_max":1044,"o":"m 901 0 l 811 0 l 292 722 l 292 94 q 435 56 342 67 l 428 0 l 53 0 l 61 56 q 196 94 147 65 l 196 844 q 53 883 146 872 l 60 939 l 307 939 l 806 246 l 806 844 q 663 883 756 872 l 669 939 l 1044 939 l 1036 883 q 901 844 950 874 l 901 0 m 310 1054 q 367 1138 328 1097 q 449 1178 406 1178 q 548 1148 493 1178 q 631 1118 603 1118 q 729 1178 678 1118 q 778 1149 753 1168 q 721 1065 760 1104 q 638 1025 682 1025 q 539 1055 593 1025 q 456 1085 485 1085 q 358 1025 410 1085 q 310 1054 335 1031 z "},"Ò":{"ha":956,"x_min":67,"x_max":889,"o":"m 273 161 q 302 114 273 161 q 478 67 332 67 q 683 161 624 67 q 743 469 743 256 q 683 777 743 683 q 478 871 624 871 q 273 777 332 871 q 214 469 214 683 q 273 161 214 256 m 889 469 q 889 230 889 469 q 478 -8 889 -8 q 67 469 67 -8 q 478 946 67 946 q 889 469 889 946 m 372 1104 q 335 1158 335 1135 q 351 1198 335 1182 q 394 1214 367 1214 q 436 1189 421 1214 l 561 1015 l 528 979 l 372 1104 z "},"Ó":{"ha":956,"x_min":67,"x_max":889,"o":"m 273 161 q 302 114 273 161 q 478 67 332 67 q 683 161 624 67 q 743 469 743 256 q 683 777 743 683 q 478 871 624 871 q 273 777 332 871 q 214 469 214 683 q 273 161 214 256 m 889 469 q 889 230 889 469 q 478 -8 889 -8 q 67 469 67 -8 q 478 946 67 946 q 889 469 889 946 m 517 1189 q 559 1214 532 1214 q 602 1198 586 1214 q 618 1158 618 1182 q 581 1104 618 1135 l 425 979 l 392 1015 l 517 1189 z "},"Ô":{"ha":956,"x_min":67,"x_max":889,"o":"m 273 161 q 302 114 273 161 q 478 67 332 67 q 683 161 624 67 q 743 469 743 256 q 683 777 743 683 q 478 871 624 871 q 273 777 332 871 q 214 469 214 683 q 273 161 214 256 m 889 469 q 889 230 889 469 q 478 -8 889 -8 q 67 469 67 -8 q 478 946 67 946 q 889 469 889 946 m 432 1189 q 478 1213 451 1213 q 525 1189 506 1213 l 664 1029 l 631 993 l 478 1108 l 326 993 l 293 1029 l 432 1189 z "},"Õ":{"ha":956,"x_min":67,"x_max":889,"o":"m 273 161 q 302 114 273 161 q 478 67 332 67 q 683 161 624 67 q 743 469 743 256 q 683 777 743 683 q 478 871 624 871 q 273 777 332 871 q 214 469 214 683 q 273 161 214 256 m 889 469 q 889 230 889 469 q 478 -8 889 -8 q 67 469 67 -8 q 478 946 67 946 q 889 469 889 946 m 246 1054 q 303 1138 264 1097 q 385 1178 342 1178 q 484 1148 429 1178 q 567 1118 539 1118 q 665 1178 614 1118 q 714 1149 690 1168 q 657 1065 696 1104 q 574 1025 618 1025 q 475 1055 529 1025 q 392 1085 421 1085 q 294 1025 346 1085 q 246 1054 271 1031 z "},"Ö":{"ha":956,"x_min":67,"x_max":889,"o":"m 273 161 q 302 114 273 161 q 478 67 332 67 q 683 161 624 67 q 743 469 743 256 q 683 777 743 683 q 478 871 624 871 q 273 777 332 871 q 214 469 214 683 q 273 161 214 256 m 889 469 q 889 230 889 469 q 478 -8 889 -8 q 67 469 67 -8 q 478 946 67 946 q 889 469 889 946 m 424 1101 q 424 1061 424 1101 q 353 1022 424 1022 q 282 1101 282 1022 q 353 1179 282 1179 q 424 1101 424 1179 m 601 1022 q 532 1101 532 1022 q 601 1179 532 1179 q 674 1101 674 1179 q 601 1022 674 1022 z "},"×":{"ha":757,"x_min":104,"x_max":653,"o":"m 165 125 l 104 189 l 315 397 l 108 603 l 169 667 l 378 460 l 588 667 l 649 603 l 442 397 l 653 189 l 592 125 l 378 335 l 165 125 z "},"Ø":{"ha":956,"x_min":67,"x_max":889,"o":"m 67 469 q 478 946 67 946 q 736 875 639 946 l 803 967 l 814 968 q 853 932 829 958 l 781 833 q 889 469 889 715 q 478 -8 889 -8 q 219 63 315 -8 l 150 -32 l 139 -33 q 100 3 119 -19 l 174 104 q 67 469 67 221 m 282 149 q 483 67 343 67 q 683 161 624 67 q 743 448 743 256 q 707 732 743 640 l 282 149 m 674 790 q 472 871 611 871 q 273 777 332 871 q 214 490 214 683 q 249 207 214 296 l 674 790 z "},"Ù":{"ha":1072,"x_min":47,"x_max":1047,"o":"m 190 310 l 190 844 q 47 883 142 874 l 54 939 l 468 939 l 460 883 q 325 844 374 872 l 325 310 q 381 124 325 181 q 558 67 438 67 q 743 132 678 67 q 808 318 808 197 l 808 844 q 665 883 760 874 l 672 939 l 1047 939 l 1039 883 q 904 844 953 872 l 904 318 q 815 74 904 160 q 545 -11 725 -11 q 278 65 365 -11 q 190 310 190 142 m 463 1104 q 425 1158 425 1135 q 441 1198 425 1182 q 484 1214 457 1214 q 526 1189 511 1214 l 651 1015 l 618 979 l 463 1104 z "},"Ú":{"ha":1072,"x_min":47,"x_max":1047,"o":"m 190 310 l 190 844 q 47 883 142 874 l 54 939 l 468 939 l 460 883 q 325 844 374 872 l 325 310 q 381 124 325 181 q 558 67 438 67 q 743 132 678 67 q 808 318 808 197 l 808 844 q 665 883 760 874 l 672 939 l 1047 939 l 1039 883 q 904 844 953 872 l 904 318 q 815 74 904 160 q 545 -11 725 -11 q 278 65 365 -11 q 190 310 190 142 m 607 1189 q 649 1214 622 1214 q 692 1198 676 1214 q 708 1158 708 1182 q 671 1104 708 1135 l 515 979 l 482 1015 l 607 1189 z "},"Û":{"ha":1072,"x_min":47,"x_max":1047,"o":"m 190 310 l 190 844 q 47 883 142 874 l 54 939 l 468 939 l 460 883 q 325 844 374 872 l 325 310 q 381 124 325 181 q 558 67 438 67 q 743 132 678 67 q 808 318 808 197 l 808 844 q 665 883 760 874 l 672 939 l 1047 939 l 1039 883 q 904 844 953 872 l 904 318 q 815 74 904 160 q 545 -11 725 -11 q 278 65 365 -11 q 190 310 190 142 m 522 1189 q 569 1213 542 1213 q 615 1189 596 1213 l 754 1029 l 721 993 l 568 1108 l 417 993 l 383 1029 l 522 1189 z "},"Ü":{"ha":1072,"x_min":47,"x_max":1047,"o":"m 190 310 l 190 844 q 47 883 142 874 l 54 939 l 468 939 l 460 883 q 325 844 374 872 l 325 310 q 381 124 325 181 q 558 67 438 67 q 743 132 678 67 q 808 318 808 197 l 808 844 q 665 883 760 874 l 672 939 l 1047 939 l 1039 883 q 904 844 953 872 l 904 318 q 815 74 904 160 q 545 -11 725 -11 q 278 65 365 -11 q 190 310 190 142 m 514 1101 q 514 1061 514 1101 q 443 1022 514 1022 q 372 1101 372 1022 q 443 1179 372 1179 q 514 1101 514 1179 m 692 1022 q 622 1101 622 1022 q 692 1179 622 1179 q 764 1101 764 1179 q 692 1022 764 1022 z "},"Ý":{"ha":897,"x_min":-3,"x_max":900,"o":"m 238 0 l 246 56 q 388 94 336 65 l 388 367 l 124 833 q -3 883 93 874 l 4 939 l 408 939 l 400 883 q 269 850 311 872 l 472 482 l 678 849 q 536 883 631 872 l 543 939 l 900 939 l 892 883 q 772 839 803 881 l 519 376 l 519 94 q 669 56 571 67 l 663 0 l 238 0 m 515 1189 q 558 1214 531 1214 q 601 1198 585 1214 q 617 1158 617 1182 q 579 1104 617 1135 l 424 979 l 390 1015 l 515 1189 z "},"Þ":{"ha":847,"x_min":61,"x_max":797,"o":"m 336 739 l 453 739 q 797 472 797 739 q 419 206 797 206 l 336 206 l 336 94 q 479 56 386 67 l 472 0 l 61 0 l 69 56 q 204 94 156 65 l 204 844 q 61 883 154 872 l 68 939 l 479 939 l 471 883 q 336 844 385 874 l 336 739 m 336 274 l 433 274 q 603 322 542 274 q 664 472 664 371 q 446 671 664 671 q 336 664 413 671 l 336 274 z "},"ß":{"ha":844,"x_min":49,"x_max":799,"o":"m 153 771 q 224 960 153 894 q 428 1026 296 1026 q 634 967 561 1026 q 707 801 707 908 q 649 663 707 731 q 500 556 592 596 q 718 445 638 525 q 799 254 799 365 q 726 67 799 143 q 544 -8 654 -8 q 343 114 343 -8 q 367 176 343 153 q 423 200 390 200 q 482 185 456 200 q 469 126 469 156 q 491 77 469 97 q 560 57 513 57 q 638 108 608 57 q 667 263 667 160 q 601 425 667 365 q 389 506 535 485 l 389 585 q 517 664 460 597 q 575 805 575 731 q 538 920 575 879 q 424 961 500 961 q 314 903 347 961 q 281 703 281 846 l 281 0 l 49 0 l 54 54 q 153 92 115 63 l 153 771 z "},"à":{"ha":715,"x_min":75,"x_max":694,"o":"m 263 -11 q 124 34 174 -11 q 75 169 75 79 q 144 314 75 258 q 344 379 213 369 l 463 388 l 463 510 q 433 619 463 585 q 338 653 403 653 q 219 585 219 653 q 265 529 219 547 q 179 458 265 458 q 117 482 140 458 q 93 544 93 506 q 159 667 93 622 q 341 713 225 713 q 524 659 457 713 q 590 510 590 606 l 590 92 q 694 51 625 65 l 689 0 l 482 0 l 467 67 q 263 -11 385 -11 m 207 174 q 301 51 207 51 q 463 138 376 51 l 463 326 l 350 317 q 245 272 283 311 q 207 174 207 233 m 244 910 q 207 964 207 940 q 223 1003 207 988 q 266 1019 239 1019 q 308 994 293 1019 l 433 821 l 400 785 l 244 910 z "},"á":{"ha":715,"x_min":75,"x_max":694,"o":"m 263 -11 q 124 34 174 -11 q 75 169 75 79 q 144 314 75 258 q 344 379 213 369 l 463 388 l 463 510 q 433 619 463 585 q 338 653 403 653 q 219 585 219 653 q 265 529 219 547 q 179 458 265 458 q 117 482 140 458 q 93 544 93 506 q 159 667 93 622 q 341 713 225 713 q 524 659 457 713 q 590 510 590 606 l 590 92 q 694 51 625 65 l 689 0 l 482 0 l 467 67 q 263 -11 385 -11 m 207 174 q 301 51 207 51 q 463 138 376 51 l 463 326 l 350 317 q 245 272 283 311 q 207 174 207 233 m 389 994 q 431 1019 404 1019 q 474 1003 458 1019 q 490 964 490 988 q 453 910 490 940 l 297 785 l 264 821 l 389 994 z "},"â":{"ha":715,"x_min":75,"x_max":694,"o":"m 263 -11 q 124 34 174 -11 q 75 169 75 79 q 144 314 75 258 q 344 379 213 369 l 463 388 l 463 510 q 433 619 463 585 q 338 653 403 653 q 219 585 219 653 q 265 529 219 547 q 179 458 265 458 q 117 482 140 458 q 93 544 93 506 q 159 667 93 622 q 341 713 225 713 q 524 659 457 713 q 590 510 590 606 l 590 92 q 694 51 625 65 l 689 0 l 482 0 l 467 67 q 263 -11 385 -11 m 207 174 q 301 51 207 51 q 463 138 376 51 l 463 326 l 350 317 q 245 272 283 311 q 207 174 207 233 m 304 994 q 351 1018 324 1018 q 397 994 378 1018 l 536 835 l 503 799 l 350 914 l 199 799 l 165 835 l 304 994 z "},"ã":{"ha":715,"x_min":75,"x_max":694,"o":"m 263 -11 q 124 34 174 -11 q 75 169 75 79 q 144 314 75 258 q 344 379 213 369 l 463 388 l 463 510 q 433 619 463 585 q 338 653 403 653 q 219 585 219 653 q 265 529 219 547 q 179 458 265 458 q 117 482 140 458 q 93 544 93 506 q 159 667 93 622 q 341 713 225 713 q 524 659 457 713 q 590 510 590 606 l 590 92 q 694 51 625 65 l 689 0 l 482 0 l 467 67 q 263 -11 385 -11 m 207 174 q 301 51 207 51 q 463 138 376 51 l 463 326 l 350 317 q 245 272 283 311 q 207 174 207 233 m 118 860 q 175 943 136 903 q 258 983 214 983 q 356 953 301 983 q 439 924 411 924 q 538 983 486 924 q 586 954 563 974 q 529 870 568 910 q 446 831 490 831 q 347 860 401 831 q 264 890 293 890 q 167 831 218 890 q 118 860 143 836 z "},"ä":{"ha":715,"x_min":75,"x_max":694,"o":"m 263 -11 q 124 34 174 -11 q 75 169 75 79 q 144 314 75 258 q 344 379 213 369 l 463 388 l 463 510 q 433 619 463 585 q 338 653 403 653 q 219 585 219 653 q 265 529 219 547 q 179 458 265 458 q 117 482 140 458 q 93 544 93 506 q 159 667 93 622 q 341 713 225 713 q 524 659 457 713 q 590 510 590 606 l 590 92 q 694 51 625 65 l 689 0 l 482 0 l 467 67 q 263 -11 385 -11 m 207 174 q 301 51 207 51 q 463 138 376 51 l 463 326 l 350 317 q 245 272 283 311 q 207 174 207 233 m 296 906 q 296 867 296 906 q 225 828 296 828 q 154 906 154 828 q 225 985 154 985 q 296 906 296 985 m 474 828 q 404 906 404 828 q 474 985 404 985 q 546 906 546 985 q 474 828 546 828 z "},"å":{"ha":715,"x_min":75,"x_max":694,"o":"m 263 -11 q 124 34 174 -11 q 75 169 75 79 q 144 314 75 258 q 344 379 213 369 l 463 388 l 463 510 q 433 619 463 585 q 338 653 403 653 q 219 585 219 653 q 265 529 219 547 q 179 458 265 458 q 117 482 140 458 q 93 544 93 506 q 159 667 93 622 q 341 713 225 713 q 524 659 457 713 q 590 510 590 606 l 590 92 q 694 51 625 65 l 689 0 l 482 0 l 467 67 q 263 -11 385 -11 m 207 174 q 301 51 207 51 q 463 138 376 51 l 463 326 l 350 317 q 245 272 283 311 q 207 174 207 233 m 257 814 q 240 831 257 814 q 222 903 222 849 q 257 992 222 957 q 349 1026 292 1026 q 443 992 407 1026 q 479 903 479 957 q 443 814 479 849 q 349 779 407 779 q 257 814 292 779 m 303 856 q 312 847 303 856 q 349 838 321 838 q 397 857 376 838 q 417 903 417 876 q 397 950 417 931 q 349 969 376 969 q 303 950 321 969 q 285 903 285 931 q 303 856 285 875 z "},"æ":{"ha":1078,"x_min":75,"x_max":1032,"o":"m 463 510 q 433 619 463 585 q 338 653 403 653 q 219 585 219 653 q 265 529 219 547 q 179 458 265 458 q 117 482 140 458 q 93 544 93 506 q 159 667 93 622 q 338 713 225 713 q 553 628 490 713 q 771 713 631 713 q 969 635 911 713 q 1032 403 1028 557 l 1001 363 l 599 363 l 599 340 q 644 108 599 168 q 785 53 688 53 q 953 135 883 53 l 1000 88 q 772 -11 915 -11 q 515 114 585 -11 q 399 18 458 47 q 257 -11 340 -11 q 124 34 174 -11 q 75 169 75 79 q 144 314 75 258 q 344 379 213 369 l 463 388 l 463 510 m 207 174 q 301 51 207 51 q 463 138 385 51 l 463 326 l 350 317 q 245 272 283 311 q 207 174 207 233 m 761 651 q 599 418 603 651 l 897 429 q 868 599 897 546 q 761 651 839 651 z "},"ç":{"ha":651,"x_min":57,"x_max":608,"o":"m 57 349 q 378 708 57 708 q 544 665 481 708 q 608 550 608 621 q 585 488 608 514 q 531 461 561 461 q 479 476 501 461 q 451 515 457 492 q 471 576 471 546 q 445 631 471 607 q 378 654 419 654 q 240 581 283 654 q 196 349 196 508 q 237 122 196 190 q 371 53 278 53 q 543 185 494 53 l 604 164 q 519 42 579 88 q 379 -7 460 -4 l 357 -69 q 442 -106 413 -79 q 471 -185 471 -133 q 430 -272 471 -237 q 325 -306 389 -306 q 226 -276 261 -306 q 192 -215 192 -246 q 205 -166 192 -183 q 237 -149 218 -149 q 268 -154 256 -149 q 263 -185 263 -176 q 282 -236 263 -217 q 329 -256 301 -256 q 394 -181 394 -256 q 313 -114 394 -125 l 285 -83 l 332 -6 q 123 90 189 4 q 57 349 57 175 z "},"è":{"ha":675,"x_min":58,"x_max":629,"o":"m 196 363 l 196 340 q 242 108 196 168 q 383 53 285 53 q 550 135 481 53 l 597 88 q 369 -11 513 -11 q 130 82 201 -11 q 58 349 58 175 q 136 617 58 522 q 361 713 214 713 q 567 635 508 713 q 629 403 625 557 l 599 363 l 196 363 m 358 651 q 196 418 200 651 l 494 429 q 465 599 494 546 q 358 651 436 651 m 258 910 q 221 964 221 940 q 237 1003 221 988 q 280 1019 253 1019 q 322 994 307 1019 l 447 821 l 414 785 l 258 910 z "},"é":{"ha":675,"x_min":58,"x_max":629,"o":"m 196 363 l 196 340 q 242 108 196 168 q 383 53 285 53 q 550 135 481 53 l 597 88 q 369 -11 513 -11 q 130 82 201 -11 q 58 349 58 175 q 136 617 58 522 q 361 713 214 713 q 567 635 508 713 q 629 403 625 557 l 599 363 l 196 363 m 358 651 q 196 418 200 651 l 494 429 q 465 599 494 546 q 358 651 436 651 m 403 994 q 445 1019 418 1019 q 488 1003 472 1019 q 504 964 504 988 q 467 910 504 940 l 311 785 l 278 821 l 403 994 z "},"ê":{"ha":675,"x_min":58,"x_max":629,"o":"m 196 363 l 196 340 q 242 108 196 168 q 383 53 285 53 q 550 135 481 53 l 597 88 q 369 -11 513 -11 q 130 82 201 -11 q 58 349 58 175 q 136 617 58 522 q 361 713 214 713 q 567 635 508 713 q 629 403 625 557 l 599 363 l 196 363 m 358 651 q 196 418 200 651 l 494 429 q 465 599 494 546 q 358 651 436 651 m 318 994 q 365 1018 338 1018 q 411 994 392 1018 l 550 835 l 517 799 l 364 914 l 213 799 l 179 835 l 318 994 z "},"ë":{"ha":675,"x_min":58,"x_max":629,"o":"m 196 363 l 196 340 q 242 108 196 168 q 383 53 285 53 q 550 135 481 53 l 597 88 q 369 -11 513 -11 q 130 82 201 -11 q 58 349 58 175 q 136 617 58 522 q 361 713 214 713 q 567 635 508 713 q 629 403 625 557 l 599 363 l 196 363 m 358 651 q 196 418 200 651 l 494 429 q 465 599 494 546 q 358 651 436 651 m 310 906 q 310 867 310 906 q 239 828 310 828 q 168 906 168 828 q 239 985 168 985 q 310 906 310 985 m 488 828 q 418 906 418 828 q 488 985 418 985 q 560 906 560 985 q 488 828 560 828 z "},"ì":{"ha":415,"x_min":51,"x_max":388,"o":"m 156 522 q 133 598 156 578 q 51 621 110 618 l 56 665 q 254 717 113 675 l 283 701 l 283 92 q 388 51 321 64 l 382 0 l 51 0 l 57 54 q 156 92 117 64 l 156 522 m 93 910 q 56 964 56 940 q 72 1003 56 988 q 115 1019 88 1019 q 157 994 142 1019 l 282 821 l 249 785 l 93 910 z "},"í":{"ha":415,"x_min":51,"x_max":388,"o":"m 156 522 q 133 598 156 578 q 51 621 110 618 l 56 665 q 254 717 113 675 l 283 701 l 283 92 q 388 51 321 64 l 382 0 l 51 0 l 57 54 q 156 92 117 64 l 156 522 m 238 994 q 280 1019 253 1019 q 323 1003 307 1019 q 339 964 339 988 q 301 910 339 940 l 146 785 l 113 821 l 238 994 z "},"î":{"ha":415,"x_min":14,"x_max":388,"o":"m 156 522 q 133 598 156 578 q 51 621 110 618 l 56 665 q 254 717 113 675 l 283 701 l 283 92 q 388 51 321 64 l 382 0 l 51 0 l 57 54 q 156 92 117 64 l 156 522 m 153 994 q 199 1018 172 1018 q 246 994 226 1018 l 385 835 l 351 799 l 199 914 l 47 799 l 14 835 l 153 994 z "},"ï":{"ha":415,"x_min":3,"x_max":394,"o":"m 156 522 q 133 598 156 578 q 51 621 110 618 l 56 665 q 254 717 113 675 l 283 701 l 283 92 q 388 51 321 64 l 382 0 l 51 0 l 57 54 q 156 92 117 64 l 156 522 m 144 906 q 144 867 144 906 q 74 828 144 828 q 3 906 3 828 q 74 985 3 985 q 144 906 144 985 m 322 828 q 253 906 253 828 q 322 985 253 985 q 394 906 394 985 q 322 828 394 828 z "},"ð":{"ha":746,"x_min":58,"x_max":676,"o":"m 676 351 q 598 83 676 175 q 367 -10 519 -10 q 136 80 214 -10 q 58 344 58 169 q 143 616 58 519 q 388 713 228 713 q 506 690 447 713 q 390 858 469 792 l 171 776 l 146 836 l 322 907 q 181 975 263 943 l 207 1039 q 417 946 333 994 l 588 1015 l 618 944 l 489 896 q 632 693 588 817 q 676 351 676 569 m 528 610 q 378 649 463 649 q 242 567 293 649 q 190 340 190 485 q 232 127 190 194 q 367 60 274 60 q 503 128 461 60 q 544 362 544 197 q 528 610 544 526 z "},"ñ":{"ha":825,"x_min":46,"x_max":806,"o":"m 150 519 q 127 595 150 575 q 46 618 104 615 l 50 663 q 233 713 81 668 l 260 699 l 274 606 q 465 713 351 713 q 640 658 579 713 q 701 506 701 603 l 701 92 q 806 51 736 65 l 800 0 l 471 0 l 475 51 q 574 92 531 60 l 574 492 q 446 640 574 640 q 347 606 394 640 q 278 515 300 571 l 278 92 q 382 51 315 64 l 376 0 l 46 0 l 51 54 q 150 92 111 64 l 150 519 m 193 860 q 250 943 211 903 q 333 983 289 983 q 431 953 376 983 q 514 924 486 924 q 613 983 561 924 q 661 954 638 974 q 604 870 643 910 q 521 831 565 831 q 422 860 476 831 q 339 890 368 890 q 242 831 293 890 q 193 860 218 836 z "},"ò":{"ha":733,"x_min":57,"x_max":676,"o":"m 190 351 q 190 274 190 351 q 232 127 190 196 q 367 58 274 58 q 503 127 461 58 q 544 351 544 196 q 503 574 544 506 q 367 643 461 643 q 231 575 272 643 q 190 351 190 507 m 598 81 q 559 35 598 81 q 367 -11 519 -11 q 135 81 214 -11 q 57 351 57 174 q 135 620 57 528 q 367 713 214 713 q 598 620 519 713 q 676 351 676 528 q 598 81 676 174 m 261 910 q 224 964 224 940 q 240 1003 224 988 q 283 1019 256 1019 q 325 994 310 1019 l 450 821 l 417 785 l 261 910 z "},"ó":{"ha":733,"x_min":57,"x_max":676,"o":"m 190 351 q 190 274 190 351 q 232 127 190 196 q 367 58 274 58 q 503 127 461 58 q 544 351 544 196 q 503 574 544 506 q 367 643 461 643 q 231 575 272 643 q 190 351 190 507 m 598 81 q 559 35 598 81 q 367 -11 519 -11 q 135 81 214 -11 q 57 351 57 174 q 135 620 57 528 q 367 713 214 713 q 598 620 519 713 q 676 351 676 528 q 598 81 676 174 m 406 994 q 448 1019 421 1019 q 491 1003 475 1019 q 507 964 507 988 q 469 910 507 940 l 314 785 l 281 821 l 406 994 z "},"ô":{"ha":733,"x_min":57,"x_max":676,"o":"m 190 351 q 190 274 190 351 q 232 127 190 196 q 367 58 274 58 q 503 127 461 58 q 544 351 544 196 q 503 574 544 506 q 367 643 461 643 q 231 575 272 643 q 190 351 190 507 m 598 81 q 559 35 598 81 q 367 -11 519 -11 q 135 81 214 -11 q 57 351 57 174 q 135 620 57 528 q 367 713 214 713 q 598 620 519 713 q 676 351 676 528 q 598 81 676 174 m 321 994 q 367 1018 340 1018 q 414 994 394 1018 l 553 835 l 519 799 l 367 914 l 215 799 l 182 835 l 321 994 z "},"õ":{"ha":733,"x_min":57,"x_max":676,"o":"m 190 351 q 190 274 190 351 q 232 127 190 196 q 367 58 274 58 q 503 127 461 58 q 544 351 544 196 q 503 574 544 506 q 367 643 461 643 q 231 575 272 643 q 190 351 190 507 m 598 81 q 559 35 598 81 q 367 -11 519 -11 q 135 81 214 -11 q 57 351 57 174 q 135 620 57 528 q 367 713 214 713 q 598 620 519 713 q 676 351 676 528 q 598 81 676 174 m 135 860 q 192 943 153 903 q 274 983 231 983 q 373 953 318 983 q 456 924 428 924 q 554 983 503 924 q 603 954 579 974 q 546 870 585 910 q 463 831 507 831 q 364 860 418 831 q 281 890 310 890 q 183 831 235 890 q 135 860 160 836 z "},"ö":{"ha":733,"x_min":57,"x_max":676,"o":"m 190 351 q 190 274 190 351 q 232 127 190 196 q 367 58 274 58 q 503 127 461 58 q 544 351 544 196 q 503 574 544 506 q 367 643 461 643 q 231 575 272 643 q 190 351 190 507 m 598 81 q 559 35 598 81 q 367 -11 519 -11 q 135 81 214 -11 q 57 351 57 174 q 135 620 57 528 q 367 713 214 713 q 598 620 519 713 q 676 351 676 528 q 598 81 676 174 m 313 906 q 313 867 313 906 q 242 828 313 828 q 171 906 171 828 q 242 985 171 985 q 313 906 313 985 m 490 828 q 421 906 421 828 q 490 985 421 985 q 563 906 563 985 q 490 828 563 828 z "},"÷":{"ha":757,"x_min":86,"x_max":671,"o":"m 444 633 q 444 619 444 633 q 424 585 444 606 q 376 565 403 565 q 328 585 349 565 q 308 632 308 606 q 328 679 308 658 q 376 700 349 700 q 424 680 403 700 q 444 633 444 660 m 376 122 q 362 122 376 122 q 328 142 349 122 q 308 190 308 163 q 328 238 308 217 q 376 258 349 258 q 424 238 403 258 q 444 190 444 217 q 424 142 444 163 q 376 122 403 122 m 86 372 l 86 451 l 671 451 l 671 372 l 86 372 z "},"ø":{"ha":733,"x_min":47,"x_max":686,"o":"m 124 96 q 57 358 57 188 q 135 620 57 528 q 356 713 214 713 q 576 643 499 713 l 643 724 l 654 725 q 686 694 668 717 l 611 604 q 676 342 676 511 q 598 81 676 174 q 377 -11 519 -11 q 157 58 235 -11 l 89 -25 l 79 -26 q 47 4 63 -12 l 124 96 m 510 563 q 370 643 468 643 q 231 575 272 643 q 190 351 190 507 q 206 194 190 251 l 510 563 m 225 139 q 363 58 265 58 q 503 127 461 58 q 544 351 544 196 q 529 506 544 450 l 225 139 z "},"ù":{"ha":817,"x_min":19,"x_max":771,"o":"m 124 231 l 124 522 q 101 598 124 578 q 19 621 78 618 l 24 665 q 222 717 81 675 l 251 701 l 251 214 q 381 57 251 57 q 463 85 419 57 q 539 175 506 114 l 539 522 q 516 598 539 578 q 435 621 493 618 l 439 665 q 638 717 496 675 l 667 701 l 667 92 q 771 51 701 65 l 765 0 l 567 0 l 551 94 q 364 -11 471 -11 q 124 231 124 -11 m 289 910 q 251 964 251 940 q 267 1003 251 988 q 310 1019 283 1019 q 353 994 338 1019 l 478 821 l 444 785 l 289 910 z "},"ú":{"ha":817,"x_min":19,"x_max":771,"o":"m 124 231 l 124 522 q 101 598 124 578 q 19 621 78 618 l 24 665 q 222 717 81 675 l 251 701 l 251 214 q 381 57 251 57 q 463 85 419 57 q 539 175 506 114 l 539 522 q 516 598 539 578 q 435 621 493 618 l 439 665 q 638 717 496 675 l 667 701 l 667 92 q 771 51 701 65 l 765 0 l 567 0 l 551 94 q 364 -11 471 -11 q 124 231 124 -11 m 433 994 q 476 1019 449 1019 q 519 1003 503 1019 q 535 964 535 988 q 497 910 535 940 l 342 785 l 308 821 l 433 994 z "},"û":{"ha":817,"x_min":19,"x_max":771,"o":"m 124 231 l 124 522 q 101 598 124 578 q 19 621 78 618 l 24 665 q 222 717 81 675 l 251 701 l 251 214 q 381 57 251 57 q 463 85 419 57 q 539 175 506 114 l 539 522 q 516 598 539 578 q 435 621 493 618 l 439 665 q 638 717 496 675 l 667 701 l 667 92 q 771 51 701 65 l 765 0 l 567 0 l 551 94 q 364 -11 471 -11 q 124 231 124 -11 m 349 994 q 395 1018 368 1018 q 442 994 422 1018 l 581 835 l 547 799 l 394 914 l 243 799 l 210 835 l 349 994 z "},"ü":{"ha":817,"x_min":19,"x_max":771,"o":"m 124 231 l 124 522 q 101 598 124 578 q 19 621 78 618 l 24 665 q 222 717 81 675 l 251 701 l 251 214 q 381 57 251 57 q 463 85 419 57 q 539 175 506 114 l 539 522 q 516 598 539 578 q 435 621 493 618 l 439 665 q 638 717 496 675 l 667 701 l 667 92 q 771 51 701 65 l 765 0 l 567 0 l 551 94 q 364 -11 471 -11 q 124 231 124 -11 m 340 906 q 340 867 340 906 q 269 828 340 828 q 199 906 199 828 q 269 985 199 985 q 340 906 340 985 m 518 828 q 449 906 449 828 q 518 985 449 985 q 590 906 590 985 q 518 828 590 828 z "},"ý":{"ha":764,"x_min":-1,"x_max":765,"o":"m 393 -137 q 308 -292 356 -246 q 197 -337 261 -337 q 92 -305 132 -337 q 53 -227 53 -272 q 74 -160 53 -182 q 124 -137 94 -137 q 179 -154 154 -137 q 161 -203 161 -179 q 175 -242 161 -228 q 217 -257 189 -257 q 315 -119 271 -257 l 351 -7 l 106 593 q -1 657 86 642 l 3 703 l 329 703 l 325 658 q 236 625 267 651 l 410 169 l 558 625 q 469 658 526 649 l 474 703 l 765 703 l 761 658 q 650 607 664 644 l 393 -137 m 435 994 q 477 1019 450 1019 q 520 1003 504 1019 q 536 964 536 988 q 499 910 536 940 l 343 785 l 310 821 l 435 994 z "},"þ":{"ha":775,"x_min":35,"x_max":718,"o":"m 139 831 q 115 897 139 878 q 35 918 90 915 l 39 963 q 238 1014 96 972 l 267 999 l 267 615 q 451 711 328 711 q 718 365 718 711 q 633 85 718 182 q 389 -11 549 -11 q 267 13 331 -11 l 267 -225 q 371 -265 304 -253 l 365 -317 l 35 -317 l 40 -262 q 139 -225 100 -253 l 139 831 m 267 364 l 267 82 q 400 53 317 53 q 535 135 483 53 q 586 363 586 217 q 550 578 586 510 q 438 647 514 647 q 267 364 267 647 z "},"ÿ":{"ha":764,"x_min":-1,"x_max":765,"o":"m 393 -137 q 308 -292 356 -246 q 197 -337 261 -337 q 92 -305 132 -337 q 53 -227 53 -272 q 74 -160 53 -182 q 124 -137 94 -137 q 179 -154 154 -137 q 161 -203 161 -179 q 175 -242 161 -228 q 217 -257 189 -257 q 315 -119 271 -257 l 351 -7 l 106 593 q -1 657 86 642 l 3 703 l 329 703 l 325 658 q 236 625 267 651 l 410 169 l 558 625 q 469 658 526 649 l 474 703 l 765 703 l 761 658 q 653 614 664 644 l 393 -137 m 342 906 q 342 867 342 906 q 271 828 342 828 q 200 906 200 828 q 271 985 200 985 q 342 906 342 985 m 519 828 q 450 906 450 828 q 519 985 450 985 q 592 906 592 985 q 519 828 592 828 z "},"ħ":{"ha":815,"x_min":46,"x_max":796,"o":"m 150 767 l 51 767 l 51 826 l 150 826 q 126 897 149 878 q 46 918 103 915 l 50 963 q 249 1014 107 972 l 278 999 l 278 826 l 468 826 l 468 767 l 278 767 l 278 624 q 463 713 356 713 q 631 658 569 713 q 692 506 692 603 l 692 92 q 796 51 726 65 l 790 0 l 461 0 l 465 51 q 564 92 521 60 l 564 492 q 436 640 564 640 q 347 611 390 640 q 278 535 303 582 l 278 92 q 382 51 315 64 l 376 0 l 46 0 l 51 54 q 150 92 111 64 l 150 767 z "},"Ĩ":{"ha":557,"x_min":39,"x_max":507,"o":"m 69 0 l 78 56 q 213 94 164 65 l 213 844 q 69 883 163 872 l 76 939 l 488 939 l 479 883 q 344 844 393 874 l 344 94 q 488 56 394 67 l 481 0 l 69 0 m 39 1054 q 96 1138 57 1097 q 178 1178 135 1178 q 277 1148 222 1178 q 360 1118 332 1118 q 458 1178 407 1118 q 507 1149 483 1168 q 450 1065 489 1104 q 367 1025 411 1025 q 268 1055 322 1025 q 185 1085 214 1085 q 88 1025 139 1085 q 39 1054 64 1031 z "},"ĩ":{"ha":415,"x_min":-19,"x_max":421,"o":"m 156 522 q 133 598 156 578 q 51 621 110 618 l 56 665 q 254 717 113 675 l 283 701 l 283 92 q 388 51 321 64 l 382 0 l 51 0 l 57 54 q 156 92 117 64 l 156 522 m -19 860 q 33 943 -4 903 q 112 983 71 983 q 203 953 153 983 q 281 924 253 924 q 372 983 322 924 q 421 954 396 974 q 367 871 404 911 q 290 831 331 831 q 197 860 249 831 q 119 890 146 890 q 29 831 79 890 q -19 860 6 836 z "},"ı":{"ha":415,"x_min":51,"x_max":388,"o":"m 156 522 q 133 598 156 578 q 51 621 110 618 l 56 665 q 254 717 113 675 l 283 701 l 283 92 q 388 51 321 64 l 382 0 l 51 0 l 57 54 q 156 92 117 64 l 156 522 z "},"Ĳ":{"ha":965,"x_min":69,"x_max":924,"o":"m 781 96 q 450 -249 781 -164 l 433 -203 q 649 74 649 -108 l 649 844 q 496 883 589 881 q 344 844 406 881 l 344 94 q 488 56 394 67 l 481 0 l 69 0 l 78 56 q 213 94 164 65 l 213 844 q 69 883 163 872 l 76 939 l 924 939 l 915 883 q 781 844 829 874 l 781 96 z "},"ĳ":{"ha":822,"x_min":51,"x_max":699,"o":"m 156 231 l 156 522 q 133 598 156 578 q 51 621 110 618 l 56 665 q 254 717 113 675 l 283 701 l 283 214 q 413 57 283 57 q 494 85 451 57 q 571 175 538 114 l 571 522 q 548 598 571 578 q 467 621 525 618 l 471 665 q 669 717 528 675 l 699 701 l 699 -49 q 617 -300 699 -247 q 519 -324 581 -324 q 412 -296 457 -324 q 367 -208 367 -268 q 386 -150 367 -174 q 442 -126 406 -126 q 496 -156 479 -126 q 474 -201 474 -175 q 490 -243 474 -228 q 536 -258 507 -258 q 600 -161 600 -258 q 590 -33 600 -115 q 578 88 581 50 q 396 -11 499 -11 q 156 231 156 -11 m 290 910 q 290 867 290 910 q 212 824 290 824 q 133 910 133 824 q 212 997 133 997 q 290 910 290 997 m 699 910 q 699 867 699 910 q 620 824 699 824 q 542 910 542 824 q 620 997 542 997 q 699 910 699 997 z "},"Ĵ":{"ha":519,"x_min":29,"x_max":478,"o":"m 203 46 l 203 844 q 60 883 153 872 l 67 939 l 478 939 l 469 883 q 335 844 383 874 l 335 68 q 260 -137 335 -62 q 46 -249 186 -211 l 29 -203 q 156 -111 108 -168 q 203 46 203 -54 m 228 1189 q 274 1213 247 1213 q 321 1189 301 1213 l 460 1029 l 426 993 l 274 1108 l 122 993 l 89 1029 l 228 1189 z "},"ĵ":{"ha":425,"x_min":-31,"x_max":399,"o":"m 174 110 l 174 522 q 151 598 174 578 q 69 621 128 618 l 74 665 q 272 717 131 675 l 301 701 l 301 -49 q 219 -300 301 -247 q 122 -324 183 -324 q 15 -296 60 -324 q -31 -208 -31 -268 q -11 -150 -31 -174 q 45 -126 8 -126 q 99 -156 82 -126 q 76 -201 76 -175 q 91 -243 76 -228 q 132 -258 106 -258 q 192 -161 192 -258 q 183 -37 192 -112 q 174 110 174 39 m 167 994 q 213 1018 186 1018 q 260 994 240 1018 l 399 835 l 365 799 l 213 914 l 61 799 l 28 835 l 167 994 z "},"ķ":{"ha":763,"x_min":49,"x_max":783,"o":"m 153 819 q 130 895 153 875 q 49 918 107 915 l 53 963 q 251 1014 110 972 l 281 999 l 281 414 l 474 619 q 519 703 503 649 l 719 703 l 724 658 q 564 593 622 654 l 431 456 l 649 94 q 783 51 697 64 l 778 0 l 564 0 l 346 368 l 281 301 l 281 92 q 385 51 318 64 l 379 0 l 49 0 l 54 54 q 153 92 114 64 l 153 819 m 375 -304 q 401 -180 401 -235 q 368 -96 401 -125 q 426 -62 392 -62 q 482 -82 461 -62 q 503 -133 503 -101 q 421 -324 503 -218 l 375 -304 z "},"Ŀ":{"ha":786,"x_min":60,"x_max":768,"o":"m 335 85 l 654 85 q 694 171 681 118 q 708 228 707 224 l 768 219 l 731 0 l 60 0 l 68 56 q 203 94 154 65 l 203 844 q 60 883 153 872 l 67 939 l 478 939 l 469 883 q 335 844 383 874 l 335 85 m 685 626 q 685 582 685 626 q 606 539 685 539 q 528 626 528 539 q 606 713 528 713 q 685 626 685 713 z "},"ŀ":{"ha":513,"x_min":46,"x_max":526,"o":"m 150 819 q 127 895 150 875 q 46 918 104 915 l 50 963 q 249 1014 107 972 l 278 999 l 278 92 q 382 51 315 64 l 376 0 l 46 0 l 51 54 q 150 92 111 64 l 150 819 m 506 725 q 496 714 506 725 q 453 703 486 703 q 400 725 419 703 q 381 779 381 747 q 401 833 381 811 q 453 854 421 854 q 506 833 486 854 q 526 779 526 811 q 506 725 526 747 z "},"Ł":{"ha":786,"x_min":60,"x_max":768,"o":"m 335 85 l 654 85 q 694 171 681 118 q 708 228 707 224 l 768 219 l 731 0 l 60 0 l 68 56 q 203 94 154 65 l 203 375 l 68 311 l 61 372 l 203 440 l 203 844 q 60 883 153 872 l 67 939 l 478 939 l 469 883 q 335 844 383 874 l 335 503 l 561 613 l 568 551 l 335 439 l 335 85 z "},"ł":{"ha":425,"x_min":8,"x_max":418,"o":"m 153 819 q 130 895 153 875 q 49 918 107 915 l 53 963 q 251 1014 110 972 l 281 999 l 281 581 l 411 640 l 418 579 l 281 515 l 281 92 q 385 51 318 64 l 379 0 l 49 0 l 54 54 q 153 92 114 64 l 153 457 l 15 394 l 8 456 l 153 521 l 153 819 z "},"Ń":{"ha":1074,"x_min":53,"x_max":1044,"o":"m 901 0 l 811 0 l 292 722 l 292 94 q 435 56 342 67 l 428 0 l 53 0 l 61 56 q 196 94 147 65 l 196 844 q 53 883 146 872 l 60 939 l 307 939 l 806 246 l 806 844 q 663 883 756 872 l 669 939 l 1044 939 l 1036 883 q 901 844 950 874 l 901 0 m 581 1189 q 623 1214 596 1214 q 666 1198 650 1214 q 682 1158 682 1182 q 644 1104 682 1135 l 489 979 l 456 1015 l 581 1189 z "},"ń":{"ha":825,"x_min":46,"x_max":806,"o":"m 150 519 q 127 595 150 575 q 46 618 104 615 l 50 663 q 233 713 81 668 l 260 699 l 274 606 q 465 713 351 713 q 640 658 579 713 q 701 506 701 603 l 701 92 q 806 51 736 65 l 800 0 l 471 0 l 475 51 q 574 92 531 60 l 574 492 q 446 640 574 640 q 347 606 394 640 q 278 515 300 571 l 278 92 q 382 51 315 64 l 376 0 l 46 0 l 51 54 q 150 92 111 64 l 150 519 m 464 994 q 506 1019 479 1019 q 549 1003 533 1019 q 565 964 565 988 q 528 910 565 940 l 372 785 l 339 821 l 464 994 z "},"Œ":{"ha":1267,"x_min":67,"x_max":1210,"o":"m 478 946 l 640 939 l 1178 939 l 1190 714 q 1149 707 1167 707 q 1126 708 1132 707 q 1057 860 1107 799 l 772 860 l 772 519 l 953 519 q 1007 547 985 519 q 1036 621 1029 575 l 1083 621 l 1083 329 l 1036 329 q 953 442 1022 442 l 772 442 l 772 85 l 1078 85 q 1149 253 1128 151 q 1176 256 1168 256 q 1210 253 1185 256 l 1196 0 l 640 0 l 478 -8 q 67 469 67 -8 q 478 946 67 946 m 478 871 q 273 777 332 871 q 214 469 214 683 q 273 161 214 256 q 478 67 332 67 q 640 94 574 67 l 640 844 q 478 871 574 871 z "},"œ":{"ha":1161,"x_min":57,"x_max":1115,"o":"m 682 363 l 682 340 q 728 108 682 168 q 869 53 771 53 q 1036 135 967 53 l 1083 88 q 856 -11 999 -11 q 607 93 683 -11 q 371 -11 528 -11 q 135 81 214 -11 q 57 351 57 174 q 135 620 57 528 q 374 713 214 713 q 611 603 533 713 q 842 713 690 713 q 1053 635 994 713 q 1115 403 1111 557 l 1085 363 l 682 363 m 190 351 q 190 274 190 351 q 232 127 190 196 q 367 58 274 58 q 503 128 461 58 q 544 353 544 197 q 501 576 544 508 q 365 643 458 643 q 231 575 272 643 q 190 351 190 507 m 844 651 q 682 418 686 651 l 981 429 q 951 599 981 546 q 844 651 922 651 z "},"Ŕ":{"ha":949,"x_min":67,"x_max":940,"o":"m 475 939 q 817 690 817 939 q 614 456 817 504 q 701 340 658 428 l 817 94 q 940 57 856 68 l 932 0 l 707 0 l 579 313 q 515 417 543 399 q 393 436 486 436 l 342 436 l 342 94 q 485 56 379 71 l 478 0 l 67 0 l 75 56 q 210 94 161 65 l 210 844 q 67 883 161 874 l 74 939 l 475 939 m 342 504 l 410 504 q 682 693 682 504 q 475 876 682 876 q 342 864 419 876 l 342 504 m 514 1189 q 556 1214 529 1214 q 599 1198 583 1214 q 615 1158 615 1182 q 578 1104 615 1135 l 422 979 l 389 1015 l 514 1189 z "},"Ŗ":{"ha":949,"x_min":67,"x_max":940,"o":"m 475 939 q 817 690 817 939 q 614 456 817 504 q 701 340 658 428 l 817 94 q 940 57 856 68 l 932 0 l 707 0 l 579 313 q 519 415 544 394 q 419 436 493 436 l 342 436 l 342 94 q 485 56 379 71 l 478 0 l 67 0 l 75 56 q 210 94 161 65 l 210 844 q 67 883 161 874 l 74 939 l 475 939 m 342 504 l 410 504 q 682 693 682 504 q 475 876 682 876 q 342 864 419 876 l 342 504 m 460 -304 q 486 -180 486 -235 q 453 -96 486 -125 q 511 -62 476 -62 q 567 -82 546 -62 q 588 -133 588 -101 q 506 -324 588 -218 l 460 -304 z "},"ŗ":{"ha":611,"x_min":51,"x_max":593,"o":"m 156 519 q 133 595 156 575 q 51 618 110 615 l 56 663 q 239 713 86 668 l 265 699 l 281 594 q 460 713 360 713 q 553 681 514 713 q 593 601 593 649 q 572 525 593 553 q 519 497 550 497 q 465 510 488 497 q 438 543 443 522 q 453 585 453 558 q 410 631 453 631 q 326 569 368 631 q 283 439 283 508 l 283 92 q 401 51 325 64 l 396 0 l 51 0 l 57 54 q 156 92 117 64 l 156 519 m 167 -304 q 193 -180 193 -235 q 160 -96 193 -125 q 218 -62 183 -62 q 274 -82 253 -62 q 294 -133 294 -101 q 213 -324 294 -218 l 167 -304 z "},"Ř":{"ha":949,"x_min":67,"x_max":940,"o":"m 475 939 q 817 690 817 939 q 614 456 817 504 q 701 340 658 428 l 817 94 q 940 57 856 68 l 932 0 l 707 0 l 579 313 q 515 417 543 399 q 393 436 486 436 l 342 436 l 342 94 q 485 56 379 71 l 478 0 l 67 0 l 75 56 q 210 94 161 65 l 210 844 q 67 883 161 874 l 74 939 l 475 939 m 342 504 l 410 504 q 682 693 682 504 q 475 876 682 876 q 342 864 419 876 l 342 504 m 522 1017 q 476 993 503 993 q 429 1017 449 993 l 290 1176 l 324 1213 l 475 1097 l 628 1213 l 661 1176 l 522 1017 z "},"ř":{"ha":611,"x_min":51,"x_max":593,"o":"m 156 519 q 133 595 156 575 q 51 618 110 615 l 56 663 q 239 713 86 668 l 265 699 l 281 594 q 460 713 360 713 q 553 681 514 713 q 593 601 593 649 q 572 525 593 553 q 519 497 550 497 q 465 510 488 497 q 438 543 443 522 q 453 585 453 558 q 410 631 453 631 q 326 569 368 631 q 283 439 283 508 l 283 92 q 401 51 325 64 l 396 0 l 51 0 l 57 54 q 156 92 117 64 l 156 519 m 367 819 q 320 796 347 796 q 274 819 293 796 l 135 979 l 168 1015 l 319 900 l 472 1015 l 506 979 l 367 819 z "},"ȷ":{"ha":425,"x_min":-31,"x_max":301,"o":"m 174 110 l 174 522 q 151 598 174 578 q 69 621 128 618 l 74 665 q 272 717 131 675 l 301 701 l 301 -49 q 219 -300 301 -247 q 122 -324 183 -324 q 15 -296 60 -324 q -31 -208 -31 -268 q -11 -150 -31 -174 q 45 -126 8 -126 q 99 -156 82 -126 q 76 -201 76 -175 q 91 -243 76 -228 q 132 -258 106 -258 q 192 -161 192 -258 q 183 -37 192 -112 q 174 110 174 39 z "},"ˆ":{"ha":518,"x_min":74,"x_max":444,"o":"m 213 994 q 259 1018 232 1018 q 306 994 286 1018 l 444 835 l 411 799 l 258 914 l 107 799 l 74 835 l 213 994 z "},"ˇ":{"ha":518,"x_min":74,"x_max":444,"o":"m 306 822 q 259 799 286 799 q 213 822 232 799 l 74 982 l 107 1018 l 258 903 l 411 1018 l 444 982 l 306 822 z "},"˚":{"ha":396,"x_min":69,"x_max":326,"o":"m 104 814 q 87 831 104 814 q 69 903 69 849 q 104 992 69 957 q 197 1026 139 1026 q 290 992 254 1026 q 326 903 326 957 q 290 814 326 849 q 197 779 254 779 q 104 814 139 779 m 150 856 q 159 847 150 856 q 196 838 168 838 q 244 857 224 838 q 264 903 264 876 q 244 950 264 931 q 196 969 224 969 q 150 950 168 969 q 132 903 132 931 q 150 856 132 875 z "},"˜":{"ha":553,"x_min":44,"x_max":513,"o":"m 44 860 q 101 943 63 903 q 184 983 140 983 q 283 953 228 983 q 365 924 338 924 q 464 983 413 924 q 513 954 488 974 q 456 870 494 910 q 372 831 417 831 q 274 860 328 831 q 190 890 219 890 q 93 831 144 890 q 44 860 69 836 z "},"–":{"ha":694,"x_min":0,"x_max":694,"o":"m 0 335 l 0 415 l 694 415 l 694 335 l 0 335 z "},"—":{"ha":1181,"x_min":0,"x_max":1181,"o":"m 0 335 l 0 415 l 1181 415 l 1181 335 l 0 335 z "},"‘":{"ha":240,"x_min":28,"x_max":199,"o":"m 111 882 q 123 844 111 858 q 151 831 135 831 q 181 838 168 831 q 199 786 199 819 q 175 733 199 753 q 113 713 151 713 q 51 742 75 713 q 28 818 28 771 q 143 1010 28 932 l 172 975 q 111 882 111 932 z "},"’":{"ha":240,"x_min":42,"x_max":213,"o":"m 129 840 q 117 878 129 864 q 89 892 106 892 q 60 885 72 892 q 42 936 42 903 q 65 990 42 969 q 127 1010 89 1010 q 189 981 165 1010 q 213 904 213 951 q 97 713 213 790 l 68 747 q 129 840 129 790 z "},"‚":{"ha":299,"x_min":76,"x_max":254,"o":"m 143 -107 q 150 -99 143 -107 q 165 -69 157 -92 q 172 -22 172 -46 q 158 16 172 3 q 126 29 144 29 q 101 22 108 29 q 83 71 83 36 q 106 126 83 106 q 168 147 129 147 q 231 119 207 147 q 254 44 254 92 q 99 -194 254 -136 l 76 -158 q 92 -149 78 -157 q 118 -131 107 -140 q 143 -107 129 -122 z "},"“":{"ha":471,"x_min":28,"x_max":429,"o":"m 111 882 q 123 844 111 858 q 151 831 135 831 q 181 838 168 831 q 199 786 199 819 q 175 733 199 753 q 113 713 151 713 q 51 742 75 713 q 28 818 28 771 q 143 1010 28 932 l 172 975 q 111 882 111 932 m 342 882 q 353 844 342 858 q 382 831 365 831 q 411 838 399 831 q 429 786 429 819 q 406 733 429 753 q 344 713 382 713 q 282 742 306 713 q 258 818 258 771 q 374 1010 258 932 l 403 975 q 342 882 342 932 z "},"”":{"ha":471,"x_min":42,"x_max":443,"o":"m 129 840 q 117 878 129 864 q 89 892 106 892 q 60 885 72 892 q 42 936 42 903 q 65 990 42 969 q 127 1010 89 1010 q 189 981 165 1010 q 213 904 213 951 q 97 713 213 790 l 68 747 q 129 840 129 790 m 360 840 q 348 878 360 864 q 319 892 336 892 q 290 885 303 892 q 272 936 272 903 q 296 990 272 969 q 358 1010 319 1010 q 419 981 396 1010 q 443 904 443 951 q 328 713 443 790 l 299 747 q 360 840 360 790 z "},"„":{"ha":533,"x_min":72,"x_max":510,"o":"m 160 -25 q 117 25 160 25 q 90 19 113 25 q 72 71 72 38 q 96 124 72 104 q 158 144 119 144 q 219 115 196 144 q 243 39 243 86 q 100 -190 243 -103 l 75 -156 q 160 -25 160 -99 m 426 -25 q 383 25 426 25 q 357 19 379 25 q 339 71 339 38 q 363 124 339 104 q 424 144 386 144 q 486 115 463 144 q 510 39 510 86 q 367 -190 510 -103 l 342 -156 q 426 -25 426 -99 z "},"•":{"ha":354,"x_min":49,"x_max":306,"o":"m 306 447 q 306 420 306 447 q 267 355 306 394 q 178 315 229 315 q 88 356 128 315 q 49 447 49 396 q 88 537 49 499 q 178 575 126 575 q 268 537 231 575 q 306 447 306 499 z "},"‹":{"ha":333,"x_min":35,"x_max":278,"o":"m 231 118 l 35 351 l 233 575 l 278 544 l 163 351 l 278 149 l 231 118 z "},"›":{"ha":333,"x_min":56,"x_max":299,"o":"m 56 149 l 169 351 l 56 544 l 100 575 l 299 351 l 103 118 l 56 149 z "},"€":{"ha":839,"x_min":46,"x_max":774,"o":"m 140 442 l 140 465 l 53 465 q 46 515 46 493 l 56 525 l 143 525 q 517 899 176 899 q 692 851 611 899 q 774 714 774 804 q 749 634 774 665 q 694 603 725 603 q 642 618 663 603 q 615 658 621 633 q 636 734 636 694 q 601 797 636 774 q 511 819 565 819 q 345 749 399 819 q 282 525 292 679 l 518 525 q 525 475 525 497 l 515 465 l 281 465 l 281 442 q 282 372 281 394 l 476 372 q 483 322 483 344 l 474 313 l 286 313 q 353 126 301 183 q 511 69 406 69 q 601 92 565 69 q 636 155 636 115 q 615 231 636 194 q 642 271 621 256 q 694 286 663 286 q 749 255 725 286 q 774 175 774 224 q 692 37 774 85 q 517 -11 610 -11 q 260 68 350 -11 q 147 313 171 147 l 53 313 q 46 363 46 340 l 56 372 l 142 372 q 140 442 140 394 z "},"":{"ha":151,"x_min":8,"x_max":143,"o":"m 15 -304 q 42 -180 42 -235 q 8 -96 42 -125 q 67 -62 32 -62 q 122 -82 101 -62 q 143 -133 143 -101 q 61 -324 143 -218 l 15 -304 z "}}}
